<svg width="72" height="56" viewBox="0 0 72 56" fill="none" xmlns="http://www.w3.org/2000/svg">
<g filter="url(#filter0_d_716_2124)">
<rect x="4" width="64" height="48" rx="8" fill="black"/>
</g>
<path d="M43.3563 24.7406C43.3438 22.6094 44.3094 21.0031 46.2594 19.8188C45.1687 18.2563 43.5187 17.3969 41.3438 17.2313C39.2844 17.0688 37.0312 18.4313 36.2062 18.4313C35.3344 18.4313 33.3406 17.2875 31.7719 17.2875C28.5344 17.3375 25.0938 19.8688 25.0938 25.0188C25.0938 26.5406 25.3719 28.1125 25.9281 29.7313C26.6719 31.8625 29.3531 37.0844 32.15 37C33.6125 36.9656 34.6469 35.9625 36.55 35.9625C38.3969 35.9625 39.3531 37 40.9844 37C43.8062 36.9594 46.2313 32.2125 46.9375 30.075C43.1531 28.2906 43.3563 24.85 43.3563 24.7406ZM40.0719 15.2094C41.6562 13.3281 41.5125 11.6156 41.4656 11C40.0656 11.0813 38.4469 11.9531 37.525 13.025C36.5094 14.175 35.9125 15.5969 36.0406 17.2C37.5531 17.3156 38.9344 16.5375 40.0719 15.2094Z" fill="white"/>
<defs>
<filter id="filter0_d_716_2124" x="0" y="0" width="72" height="56" filterUnits="userSpaceOnUse" color-interpolation-filters="sRGB">
<feFlood flood-opacity="0" result="BackgroundImageFix"/>
<feColorMatrix in="SourceAlpha" type="matrix" values="0 0 0 0 0 0 0 0 0 0 0 0 0 0 0 0 0 0 127 0" result="hardAlpha"/>
<feOffset dy="4"/>
<feGaussianBlur stdDeviation="2"/>
<feComposite in2="hardAlpha" operator="out"/>
<feColorMatrix type="matrix" values="0 0 0 0 0.403922 0 0 0 0 0.403922 0 0 0 0 0.403922 0 0 0 0.2 0"/>
<feBlend mode="normal" in2="BackgroundImageFix" result="effect1_dropShadow_716_2124"/>
<feBlend mode="normal" in="SourceGraphic" in2="effect1_dropShadow_716_2124" result="shape"/>
</filter>
</defs>
</svg>
