<svg width="248" height="56" viewBox="0 0 248 56" fill="none" xmlns="http://www.w3.org/2000/svg">
<g filter="url(#filter0_d_716_2119)">
<rect x="4" width="64" height="48" rx="8" fill="#1877F2"/>
</g>
<path d="M36 10.6667C28.636 10.6667 22.6666 16.6361 22.6666 24.0001C22.6666 30.6547 27.5426 36.1707 33.9173 37.1721V27.8534H30.5306V24.0001H33.9173V21.0627C33.9173 17.7214 35.9066 15.8761 38.9533 15.8761C40.412 15.8761 41.9373 16.1361 41.9373 16.1361V19.4161H40.2573C38.6 19.4161 38.084 20.4441 38.084 21.4987V24.0001H41.7813L41.1906 27.8534H38.084V37.1721C44.4573 36.1721 49.3333 30.6534 49.3333 24.0001C49.3333 16.6361 43.364 10.6667 36 10.6667Z" fill="white"/>
<g filter="url(#filter1_d_716_2119)">
<rect x="180" width="64" height="48" rx="8" fill="black"/>
</g>
<path d="M219.356 24.7406C219.344 22.6094 220.309 21.0031 222.259 19.8188C221.169 18.2563 219.519 17.3969 217.344 17.2313C215.284 17.0688 213.031 18.4313 212.206 18.4313C211.334 18.4313 209.341 17.2875 207.772 17.2875C204.534 17.3375 201.094 19.8688 201.094 25.0188C201.094 26.5406 201.372 28.1125 201.928 29.7313C202.672 31.8625 205.353 37.0844 208.15 37C209.612 36.9656 210.647 35.9625 212.55 35.9625C214.397 35.9625 215.353 37 216.984 37C219.806 36.9594 222.231 32.2125 222.938 30.075C219.153 28.2906 219.356 24.85 219.356 24.7406ZM216.072 15.2094C217.656 13.3281 217.513 11.6156 217.466 11C216.066 11.0813 214.447 11.9531 213.525 13.025C212.509 14.175 211.912 15.5969 212.041 17.2C213.553 17.3156 214.934 16.5375 216.072 15.2094Z" fill="white"/>
<g filter="url(#filter2_d_716_2119)">
<rect x="92" width="64" height="48" rx="8" fill="#FEFEFE"/>
</g>
<path d="M137.074 21.3887H136V21.3334H124V26.6667H131.535C130.436 29.7714 127.482 32.0001 124 32.0001C119.582 32.0001 116 28.4181 116 24.0001C116 19.5821 119.582 16.0001 124 16.0001C126.039 16.0001 127.895 16.7694 129.307 18.0261L133.079 14.2547C130.697 12.0354 127.512 10.6667 124 10.6667C116.637 10.6667 110.667 16.6367 110.667 24.0001C110.667 31.3634 116.637 37.3334 124 37.3334C131.363 37.3334 137.333 31.3634 137.333 24.0001C137.333 23.1061 137.241 22.2334 137.074 21.3887Z" fill="#FFC107"/>
<path d="M112.204 17.7941L116.585 21.0067C117.77 18.0721 120.641 16.0001 124 16.0001C126.039 16.0001 127.895 16.7694 129.307 18.0261L133.079 14.2547C130.697 12.0354 127.512 10.6667 124 10.6667C118.879 10.6667 114.437 13.5581 112.204 17.7941Z" fill="#FF3D00"/>
<path d="M124 37.3333C127.444 37.3333 130.573 36.0153 132.939 33.872L128.813 30.38C127.429 31.4322 125.738 32.0013 124 32C120.532 32 117.587 29.7886 116.478 26.7026L112.13 30.0526C114.337 34.3706 118.818 37.3333 124 37.3333Z" fill="#4CAF50"/>
<path d="M137.074 21.3886H136V21.3333H124V26.6666H131.535C131.009 28.1442 130.062 29.4354 128.811 30.3806L128.813 30.3793L132.939 33.8713C132.647 34.1366 137.333 30.6666 137.333 23.9999C137.333 23.1059 137.241 22.2333 137.074 21.3886Z" fill="#1976D2"/>
<defs>
<filter id="filter0_d_716_2119" x="0" y="0" width="72" height="56" filterUnits="userSpaceOnUse" color-interpolation-filters="sRGB">
<feFlood flood-opacity="0" result="BackgroundImageFix"/>
<feColorMatrix in="SourceAlpha" type="matrix" values="0 0 0 0 0 0 0 0 0 0 0 0 0 0 0 0 0 0 127 0" result="hardAlpha"/>
<feOffset dy="4"/>
<feGaussianBlur stdDeviation="2"/>
<feComposite in2="hardAlpha" operator="out"/>
<feColorMatrix type="matrix" values="0 0 0 0 0.403922 0 0 0 0 0.403922 0 0 0 0 0.403922 0 0 0 0.2 0"/>
<feBlend mode="normal" in2="BackgroundImageFix" result="effect1_dropShadow_716_2119"/>
<feBlend mode="normal" in="SourceGraphic" in2="effect1_dropShadow_716_2119" result="shape"/>
</filter>
<filter id="filter1_d_716_2119" x="176" y="0" width="72" height="56" filterUnits="userSpaceOnUse" color-interpolation-filters="sRGB">
<feFlood flood-opacity="0" result="BackgroundImageFix"/>
<feColorMatrix in="SourceAlpha" type="matrix" values="0 0 0 0 0 0 0 0 0 0 0 0 0 0 0 0 0 0 127 0" result="hardAlpha"/>
<feOffset dy="4"/>
<feGaussianBlur stdDeviation="2"/>
<feComposite in2="hardAlpha" operator="out"/>
<feColorMatrix type="matrix" values="0 0 0 0 0.403922 0 0 0 0 0.403922 0 0 0 0 0.403922 0 0 0 0.2 0"/>
<feBlend mode="normal" in2="BackgroundImageFix" result="effect1_dropShadow_716_2119"/>
<feBlend mode="normal" in="SourceGraphic" in2="effect1_dropShadow_716_2119" result="shape"/>
</filter>
<filter id="filter2_d_716_2119" x="88" y="0" width="72" height="56" filterUnits="userSpaceOnUse" color-interpolation-filters="sRGB">
<feFlood flood-opacity="0" result="BackgroundImageFix"/>
<feColorMatrix in="SourceAlpha" type="matrix" values="0 0 0 0 0 0 0 0 0 0 0 0 0 0 0 0 0 0 127 0" result="hardAlpha"/>
<feOffset dy="4"/>
<feGaussianBlur stdDeviation="2"/>
<feComposite in2="hardAlpha" operator="out"/>
<feColorMatrix type="matrix" values="0 0 0 0 0.403922 0 0 0 0 0.403922 0 0 0 0 0.403922 0 0 0 0.2 0"/>
<feBlend mode="normal" in2="BackgroundImageFix" result="effect1_dropShadow_716_2119"/>
<feBlend mode="normal" in="SourceGraphic" in2="effect1_dropShadow_716_2119" result="shape"/>
</filter>
</defs>
</svg>
