<svg width="72" height="56" viewBox="0 0 72 56" fill="none" xmlns="http://www.w3.org/2000/svg">
<g filter="url(#filter0_d_716_2128)">
<rect x="4" width="64" height="48" rx="8" fill="#FEFEFE"/>
</g>
<path d="M49.074 21.3887H48V21.3334H36V26.6667H43.5353C42.436 29.7714 39.482 32.0001 36 32.0001C31.582 32.0001 28 28.4181 28 24.0001C28 19.5821 31.582 16.0001 36 16.0001C38.0393 16.0001 39.8946 16.7694 41.3073 18.0261L45.0786 14.2547C42.6973 12.0354 39.512 10.6667 36 10.6667C28.6366 10.6667 22.6666 16.6367 22.6666 24.0001C22.6666 31.3634 28.6366 37.3334 36 37.3334C43.3633 37.3334 49.3333 31.3634 49.3333 24.0001C49.3333 23.1061 49.2413 22.2334 49.074 21.3887Z" fill="#FFC107"/>
<path d="M24.204 17.7941L28.5846 21.0067C29.77 18.0721 32.6406 16.0001 36 16.0001C38.0393 16.0001 39.8946 16.7694 41.3073 18.0261L45.0786 14.2547C42.6973 12.0354 39.512 10.6667 36 10.6667C30.8786 10.6667 26.4373 13.5581 24.204 17.7941Z" fill="#FF3D00"/>
<path d="M36 37.3333C39.444 37.3333 42.5733 36.0153 44.9393 33.872L40.8127 30.38C39.429 31.4322 37.7383 32.0013 36 32C32.532 32 29.5873 29.7886 28.478 26.7026L24.13 30.0526C26.3367 34.3706 30.818 37.3333 36 37.3333Z" fill="#4CAF50"/>
<path d="M49.074 21.3886H48V21.3333H36V26.6666H43.5353C43.0095 28.1442 42.0622 29.4354 40.8107 30.3806L40.8127 30.3793L44.9393 33.8713C44.6473 34.1366 49.3333 30.6666 49.3333 23.9999C49.3333 23.1059 49.2413 22.2333 49.074 21.3886Z" fill="#1976D2"/>
<defs>
<filter id="filter0_d_716_2128" x="0" y="0" width="72" height="56" filterUnits="userSpaceOnUse" color-interpolation-filters="sRGB">
<feFlood flood-opacity="0" result="BackgroundImageFix"/>
<feColorMatrix in="SourceAlpha" type="matrix" values="0 0 0 0 0 0 0 0 0 0 0 0 0 0 0 0 0 0 127 0" result="hardAlpha"/>
<feOffset dy="4"/>
<feGaussianBlur stdDeviation="2"/>
<feComposite in2="hardAlpha" operator="out"/>
<feColorMatrix type="matrix" values="0 0 0 0 0.403922 0 0 0 0 0.403922 0 0 0 0 0.403922 0 0 0 0.2 0"/>
<feBlend mode="normal" in2="BackgroundImageFix" result="effect1_dropShadow_716_2128"/>
<feBlend mode="normal" in="SourceGraphic" in2="effect1_dropShadow_716_2128" result="shape"/>
</filter>
</defs>
</svg>
