<svg width="114" height="18" viewBox="0 0 114 18" fill="none" xmlns="http://www.w3.org/2000/svg">
<g clip-path="url(#clip0_570_5631)">
<path d="M9.58306 0.378822L12.0121 5.53487L17.4436 6.36311C17.5635 6.38124 17.6763 6.4342 17.769 6.51601C17.8617 6.59782 17.9307 6.70519 17.9682 6.82598C18.0057 6.94677 18.0101 7.07614 17.981 7.19944C17.952 7.32274 17.8905 7.43504 17.8036 7.52363L13.8726 11.5339L14.8005 17.2023C14.821 17.3275 14.8076 17.4562 14.7619 17.5738C14.7162 17.6915 14.64 17.7934 14.542 17.8681C14.4439 17.9427 14.3278 17.9872 14.2069 17.9964C14.086 18.0055 13.9651 17.9791 13.8578 17.92L9.00039 15.2479L4.14224 17.9225C4.03483 17.9813 3.91388 18.0075 3.79302 17.9981C3.67215 17.9888 3.55619 17.9443 3.45818 17.8696C3.36018 17.7949 3.28403 17.693 3.23833 17.5754C3.19262 17.4577 3.17918 17.3291 3.19951 17.2039L4.1274 11.5388L0.196359 7.52854C0.109497 7.43995 0.048044 7.32765 0.0189604 7.20435C-0.0101231 7.08105 -0.00567504 6.95168 0.0318008 6.83089C0.0692767 6.7101 0.138283 6.60273 0.231003 6.52092C0.323724 6.43911 0.436454 6.38615 0.556424 6.36802L5.98787 5.53569L8.41694 0.37964C8.47068 0.265738 8.55372 0.169837 8.6567 0.102756C8.75968 0.0356758 8.8785 8.52556e-05 8.99976 1.52978e-07C9.12101 -8.49496e-05 9.23988 0.0353388 9.34295 0.102275C9.44601 0.169211 9.52918 0.264995 9.58306 0.378822V0.378822Z" fill="#FFC725"/>
</g>
<g clip-path="url(#clip1_570_5631)">
<path d="M33.584 0.378822L36.0131 5.53487L41.4446 6.36311C41.5645 6.38124 41.6773 6.4342 41.77 6.51601C41.8627 6.59782 41.9317 6.70519 41.9692 6.82598C42.0067 6.94677 42.0111 7.07614 41.982 7.19944C41.9529 7.32274 41.8915 7.43504 41.8046 7.52363L37.8736 11.5339L38.8015 17.2023C38.8219 17.3275 38.8086 17.4562 38.7629 17.5738C38.7172 17.6915 38.641 17.7934 38.5429 17.8681C38.4449 17.9427 38.3288 17.9872 38.2079 17.9964C38.087 18.0055 37.9661 17.9791 37.8587 17.92L33.0014 15.2479L28.1432 17.9225C28.0358 17.9813 27.9149 18.0075 27.794 17.9981C27.6731 17.9888 27.5572 17.9443 27.4592 17.8696C27.3612 17.7949 27.285 17.693 27.2393 17.5754C27.1936 17.4577 27.1802 17.3291 27.2005 17.2039L28.1284 11.5388L24.1973 7.52854C24.1105 7.43995 24.049 7.32765 24.0199 7.20435C23.9909 7.08105 23.9953 6.95168 24.0328 6.83089C24.0703 6.7101 24.1393 6.60273 24.232 6.52092C24.3247 6.43911 24.4374 6.38615 24.5574 6.36802L29.9888 5.53569L32.4179 0.37964C32.4717 0.265738 32.5547 0.169837 32.6577 0.102756C32.7607 0.0356758 32.8795 8.52556e-05 33.0007 1.52978e-07C33.122 -8.49496e-05 33.2409 0.0353388 33.3439 0.102275C33.447 0.169211 33.5302 0.264995 33.584 0.378822V0.378822Z" fill="#FFC725"/>
</g>
<g clip-path="url(#clip2_570_5631)">
<path d="M57.5835 0.378822L60.0126 5.53487L65.4441 6.36311C65.564 6.38124 65.6768 6.4342 65.7695 6.51601C65.8622 6.59782 65.9312 6.70519 65.9687 6.82598C66.0062 6.94677 66.0106 7.07614 65.9815 7.19944C65.9524 7.32274 65.891 7.43504 65.8041 7.52363L61.8731 11.5339L62.801 17.2023C62.8214 17.3275 62.8081 17.4562 62.7624 17.5738C62.7167 17.6915 62.6405 17.7934 62.5425 17.8681C62.4444 17.9427 62.3283 17.9872 62.2074 17.9964C62.0865 18.0055 61.9656 17.9791 61.8582 17.92L57.0009 15.2479L52.1427 17.9225C52.0353 17.9813 51.9144 18.0075 51.7935 17.9981C51.6726 17.9888 51.5567 17.9443 51.4587 17.8696C51.3607 17.7949 51.2845 17.693 51.2388 17.5754C51.1931 17.4577 51.1797 17.3291 51.2 17.2039L52.1279 11.5388L48.1968 7.52854C48.11 7.43995 48.0485 7.32765 48.0194 7.20435C47.9904 7.08105 47.9948 6.95168 48.0323 6.83089C48.0698 6.7101 48.1388 6.60273 48.2315 6.52092C48.3242 6.43911 48.4369 6.38615 48.5569 6.36802L53.9884 5.53569L56.4174 0.37964C56.4712 0.265738 56.5542 0.169837 56.6572 0.102756C56.7602 0.0356758 56.879 8.52556e-05 57.0002 1.52978e-07C57.1215 -8.49496e-05 57.2404 0.0353388 57.3434 0.102275C57.4465 0.169211 57.5297 0.264995 57.5835 0.378822V0.378822Z" fill="#FFC725"/>
</g>
<g clip-path="url(#clip3_570_5631)">
<path d="M83.6734 5.98899L83.5598 5.74796L81.1311 0.592738C81.1311 0.59272 81.1311 0.592702 81.1311 0.592684C81.1159 0.5605 81.0939 0.536735 81.0706 0.521603C81.0476 0.506626 81.0232 0.499984 81.0001 0.5C80.977 0.500016 80.9527 0.506693 80.9296 0.521712C80.9064 0.536857 80.8845 0.560605 80.8693 0.592733L83.6734 5.98899ZM83.6734 5.98899L83.9368 6.02915L89.3682 6.8574L89.3689 6.8575C89.3919 6.86097 89.4161 6.87146 89.4382 6.89094C89.4605 6.91061 89.4797 6.93888 89.4907 6.97414C89.5016 7.00951 89.503 7.04808 89.4944 7.08465C89.4858 7.12114 89.4682 7.15154 89.4466 7.17357L89.4466 7.17362L85.5155 11.1839L85.3383 11.3647L85.3792 11.6147L86.307 17.2829C86.307 17.283 86.3071 17.283 86.3071 17.283C86.3132 17.3206 86.309 17.3589 86.2958 17.3929C86.2827 17.4267 86.262 17.4528 86.2391 17.4703C86.2164 17.4875 86.1921 17.496 86.1691 17.4978C86.1461 17.4995 86.122 17.4947 86.0989 17.482L86.0988 17.4819L81.2414 14.8098L81.0003 14.6772L80.7592 14.8099L75.9021 17.4839C75.902 17.484 75.9019 17.484 75.9017 17.4841C75.8786 17.4967 75.8545 17.5014 75.8316 17.4996C75.8084 17.4978 75.784 17.4892 75.7613 17.4719C75.7383 17.4544 75.7176 17.4282 75.7044 17.3943C75.6912 17.3602 75.6869 17.3219 75.693 17.2843C75.693 17.2842 75.693 17.2841 75.693 17.284L76.6208 11.6196L76.6618 11.3697L76.4845 11.1888L72.5534 7.17853L72.5534 7.17848C72.5318 7.15645 72.5142 7.12605 72.5056 7.08956C72.497 7.053 72.4984 7.01442 72.5093 6.97905C72.5203 6.94379 72.5395 6.91552 72.5618 6.89585C72.5839 6.87637 72.6081 6.86588 72.6311 6.86241L72.6322 6.86225L78.0636 6.02992L78.3267 5.98959L78.4402 5.74878L80.8692 0.592968L83.6734 5.98899Z" fill="#C4C4C4" stroke="#C4C4C4"/>
</g>
<g clip-path="url(#clip4_570_5631)">
<path d="M107.673 5.98899L107.56 5.74796L105.131 0.592738C105.131 0.59272 105.131 0.592702 105.131 0.592684C105.116 0.5605 105.094 0.536735 105.071 0.521603C105.048 0.506626 105.023 0.499984 105 0.5C104.977 0.500016 104.953 0.506693 104.93 0.521712C104.906 0.536857 104.884 0.560605 104.869 0.592733L107.673 5.98899ZM107.673 5.98899L107.937 6.02915L113.368 6.8574L113.369 6.8575C113.392 6.86097 113.416 6.87146 113.438 6.89094C113.46 6.91061 113.48 6.93888 113.491 6.97414C113.502 7.00951 113.503 7.04808 113.494 7.08465C113.486 7.12114 113.468 7.15154 113.447 7.17357L113.447 7.17362L109.516 11.1839L109.338 11.3647L109.379 11.6147L110.307 17.2829C110.307 17.283 110.307 17.283 110.307 17.283C110.313 17.3206 110.309 17.3589 110.296 17.3929C110.283 17.4267 110.262 17.4528 110.239 17.4703C110.216 17.4875 110.192 17.496 110.169 17.4978C110.146 17.4995 110.122 17.4947 110.099 17.482L110.099 17.4819L105.241 14.8098L105 14.6772L104.759 14.8099L99.9021 17.4839C99.902 17.484 99.9019 17.484 99.9017 17.4841C99.8786 17.4967 99.8545 17.5014 99.8316 17.4996C99.8084 17.4978 99.784 17.4892 99.7613 17.4719C99.7383 17.4544 99.7176 17.4282 99.7044 17.3943C99.6912 17.3602 99.6869 17.3219 99.693 17.2843C99.693 17.2842 99.693 17.2841 99.693 17.284L100.621 11.6196L100.662 11.3697L100.484 11.1888L96.5534 7.17853L96.5534 7.17848C96.5318 7.15645 96.5142 7.12605 96.5056 7.08956C96.497 7.053 96.4984 7.01442 96.5093 6.97905C96.5203 6.94379 96.5395 6.91552 96.5618 6.89585C96.5839 6.87637 96.6081 6.86588 96.6311 6.86241L96.6322 6.86225L102.064 6.02992L102.327 5.98959L102.44 5.74878L104.869 0.592968L107.673 5.98899Z" fill="#C4C4C4" stroke="#C4C4C4"/>
</g>
<defs>
<clipPath id="clip0_570_5631">
<rect width="18" height="18" fill="white"/>
</clipPath>
<clipPath id="clip1_570_5631">
<rect width="18" height="18" fill="white" transform="translate(24.001)"/>
</clipPath>
<clipPath id="clip2_570_5631">
<rect width="18" height="18" fill="white" transform="translate(48.0005)"/>
</clipPath>
<clipPath id="clip3_570_5631">
<rect width="18" height="18" fill="white" transform="translate(72)"/>
</clipPath>
<clipPath id="clip4_570_5631">
<rect width="18" height="18" fill="white" transform="translate(96)"/>
</clipPath>
</defs>
</svg>
