<svg width="18" height="18" viewBox="0 0 18 18" fill="none" xmlns="http://www.w3.org/2000/svg">
<path d="M11.5603 5.74796L11.6739 5.98899L11.9372 6.02915L17.3687 6.8574L17.3694 6.8575C17.3924 6.86097 17.4166 6.87146 17.4387 6.89094C17.461 6.91061 17.4802 6.93887 17.4911 6.97414C17.5021 7.00951 17.5035 7.04809 17.4949 7.08465C17.4863 7.12114 17.4687 7.15154 17.4471 7.17356L17.4471 7.17362L13.516 11.1839L13.3387 11.3647L13.3797 11.6147L14.3075 17.2829C14.3075 17.283 14.3075 17.283 14.3075 17.283C14.3137 17.3206 14.3095 17.3589 14.2963 17.3929C14.2831 17.4267 14.2625 17.4528 14.2396 17.4703C14.2169 17.4875 14.1926 17.496 14.1696 17.4978C14.1466 17.4995 14.1225 17.4947 14.0994 17.482L14.0992 17.4819L9.24188 14.8098L9.00079 14.6772L8.75974 14.8099L3.90258 17.4839C3.90241 17.484 3.90223 17.4841 3.90206 17.4842C3.879 17.4967 3.85496 17.5014 3.83206 17.4996C3.80892 17.4978 3.78449 17.4892 3.76177 17.4719C3.73881 17.4544 3.71807 17.4282 3.70487 17.3943C3.69164 17.3602 3.68743 17.3219 3.6935 17.2843C3.69351 17.2842 3.69352 17.2841 3.69353 17.284L4.62131 11.6196L4.66225 11.3697L4.48495 11.1888L0.55391 7.17853L0.553857 7.17848C0.532263 7.15645 0.514701 7.12605 0.506094 7.08956C0.497469 7.053 0.498859 7.01442 0.509832 6.97905C0.520775 6.94379 0.539993 6.91552 0.56229 6.89585C0.584367 6.87637 0.608625 6.86588 0.63161 6.86241L0.63265 6.86225L6.06409 6.02992L6.32722 5.98959L6.44067 5.74878L8.86964 0.592968C8.86965 0.592941 8.86967 0.592914 8.86968 0.592887C8.88489 0.560681 8.9068 0.536882 8.93009 0.521712C8.95315 0.506693 8.9775 0.500016 9.0006 0.5C9.02369 0.499984 9.04804 0.506626 9.07111 0.521603C9.09433 0.536685 9.1162 0.56034 9.13143 0.592358C9.13149 0.592483 9.13155 0.592609 9.13161 0.592735L11.5603 5.74796Z" fill="#FFC725" stroke="#FFC725"/>
</svg>
