<svg width="340" height="340" viewBox="0 0 340 340" fill="none" xmlns="http://www.w3.org/2000/svg">
<path d="M225.08 75.2692C239.36 75.1468 252.049 85.374 256.768 98.5728C263.616 117.728 251.328 134.341 241.454 149.695C234.056 161.255 227.548 174.223 228.473 188.299C229.405 202.579 237.164 215.322 238.578 229.52C239.7 240.781 234.498 252.47 225.944 259.74C213.84 270.028 195.663 270.912 182.22 262.684C167.443 253.64 160.623 236.545 147.383 225.821C131.743 213.139 111.18 211.276 92.65 205.238C75.99 199.798 61.37 184.967 61.03 166.682C60.7444 149.974 71.8692 135.769 86.1084 128.126C101.993 119.605 120.108 122.155 137.346 122.509C145.051 122.665 153.517 122.189 160.929 119.143C169.17 115.743 174.624 108.902 180.186 102.279C187.32 93.7924 195.881 85.34 205.836 80.2264C211.783 77.114 218.369 75.4175 225.08 75.2692Z" fill="#12A3A5"/>
<path opacity="0.9" d="M225.08 75.2692C239.36 75.1468 252.049 85.374 256.768 98.5728C263.616 117.728 251.328 134.341 241.454 149.695C234.056 161.255 227.548 174.223 228.473 188.299C229.405 202.579 237.164 215.322 238.578 229.52C239.7 240.781 234.498 252.47 225.944 259.74C213.84 270.028 195.663 270.912 182.22 262.684C167.443 253.64 160.623 236.545 147.383 225.821C131.743 213.139 111.18 211.276 92.65 205.238C75.99 199.798 61.37 184.967 61.03 166.682C60.7444 149.974 71.8692 135.769 86.1084 128.126C101.993 119.605 120.108 122.155 137.346 122.509C145.051 122.665 153.517 122.189 160.929 119.143C169.17 115.743 174.624 108.902 180.186 102.279C187.32 93.7924 195.881 85.34 205.836 80.2264C211.783 77.114 218.369 75.4175 225.08 75.2692Z" fill="white"/>
<path d="M170 290.741C242.816 290.741 301.845 287.294 301.845 283.043C301.845 278.792 242.816 275.346 170 275.346C97.1839 275.346 38.1548 278.792 38.1548 283.043C38.1548 287.294 97.1839 290.741 170 290.741Z" fill="#F5F5F5"/>
<path d="M156.57 124.399H56.4604V254.096H156.57V124.399Z" fill="#12A3A5"/>
<path opacity="0.6" d="M156.57 124.399H56.4604V254.096H156.57V124.399Z" fill="white"/>
<path opacity="0.3" d="M96.186 124.216H60.3704V245.936H96.186V124.216Z" fill="white"/>
<path opacity="0.3" d="M152.66 124.216H116.844V245.936H152.66V124.216Z" fill="white"/>
<path opacity="0.6" d="M147.404 134.103H140.733V140.774H147.404V134.103Z" fill="white"/>
<path d="M143.949 134.62H141.256V140.25H143.949V134.62Z" fill="#12A3A5"/>
<path d="M146.88 134.626H144.187V140.257H146.88V134.626Z" fill="#12A3A5"/>
<g opacity="0.2">
<path d="M143.949 134.62H141.256V140.25H143.949V134.62Z" fill="white"/>
<path d="M146.88 134.626H144.187V140.257H146.88V134.626Z" fill="white"/>
</g>
<path d="M138.557 141.454H138.366V144.282H138.557V141.454Z" fill="#12A3A5"/>
<path d="M139.577 141.454H139.386V144.282H139.577V141.454Z" fill="#12A3A5"/>
<path d="M140.597 141.454H140.406V144.282H140.597V141.454Z" fill="#12A3A5"/>
<path d="M141.617 141.454H141.426V144.282H141.617V141.454Z" fill="#12A3A5"/>
<path d="M142.637 141.454H142.446V144.282H142.637V141.454Z" fill="#12A3A5"/>
<path d="M143.657 141.454H143.466V144.282H143.657V141.454Z" fill="#12A3A5"/>
<path d="M144.677 141.454H144.486V144.282H144.677V141.454Z" fill="#12A3A5"/>
<path d="M145.697 141.454H145.506V144.282H145.697V141.454Z" fill="#12A3A5"/>
<path d="M146.717 141.454H146.526V144.282H146.717V141.454Z" fill="#12A3A5"/>
<path d="M147.737 141.454H147.546V144.282H147.737V141.454Z" fill="#12A3A5"/>
<path d="M148.757 141.454H148.566V144.282H148.757V141.454Z" fill="#12A3A5"/>
<path d="M149.777 141.454H149.586V144.282H149.777V141.454Z" fill="#12A3A5"/>
<path d="M149.92 141.284H138.217V141.624H149.92V141.284Z" fill="#12A3A5"/>
<path d="M149.92 144.004H138.217V144.344H149.92V144.004Z" fill="#12A3A5"/>
<path opacity="0.6" d="M147.404 151.443H140.733V158.114H147.404V151.443Z" fill="white"/>
<path d="M143.949 151.96H141.256V157.59H143.949V151.96Z" fill="#12A3A5"/>
<path d="M146.88 151.966H144.187V157.597H146.88V151.966Z" fill="#12A3A5"/>
<g opacity="0.2">
<path d="M143.949 151.96H141.256V157.59H143.949V151.96Z" fill="white"/>
<path d="M146.88 151.966H144.187V157.597H146.88V151.966Z" fill="white"/>
</g>
<path d="M138.557 158.794H138.366V161.622H138.557V158.794Z" fill="#12A3A5"/>
<path d="M139.577 158.794H139.386V161.622H139.577V158.794Z" fill="#12A3A5"/>
<path d="M140.597 158.794H140.406V161.622H140.597V158.794Z" fill="#12A3A5"/>
<path d="M141.617 158.794H141.426V161.622H141.617V158.794Z" fill="#12A3A5"/>
<path d="M142.637 158.794H142.446V161.622H142.637V158.794Z" fill="#12A3A5"/>
<path d="M143.657 158.794H143.466V161.622H143.657V158.794Z" fill="#12A3A5"/>
<path d="M144.677 158.794H144.486V161.622H144.677V158.794Z" fill="#12A3A5"/>
<path d="M145.697 158.794H145.506V161.622H145.697V158.794Z" fill="#12A3A5"/>
<path d="M146.717 158.794H146.526V161.622H146.717V158.794Z" fill="#12A3A5"/>
<path d="M147.737 158.794H147.546V161.622H147.737V158.794Z" fill="#12A3A5"/>
<path d="M148.757 158.794H148.566V161.622H148.757V158.794Z" fill="#12A3A5"/>
<path d="M149.777 158.794H149.586V161.622H149.777V158.794Z" fill="#12A3A5"/>
<path d="M149.92 158.624H138.217V158.964H149.92V158.624Z" fill="#12A3A5"/>
<path d="M149.92 161.344H138.217V161.684H149.92V161.344Z" fill="#12A3A5"/>
<path opacity="0.6" d="M147.404 168.783H140.733V175.454H147.404V168.783Z" fill="white"/>
<path d="M143.949 169.3H141.256V174.93H143.949V169.3Z" fill="#12A3A5"/>
<path d="M146.88 169.306H144.187V174.937H146.88V169.306Z" fill="#12A3A5"/>
<g opacity="0.2">
<path d="M143.949 169.3H141.256V174.93H143.949V169.3Z" fill="white"/>
<path d="M146.88 169.306H144.187V174.937H146.88V169.306Z" fill="white"/>
</g>
<path d="M138.557 176.134H138.366V178.962H138.557V176.134Z" fill="#12A3A5"/>
<path d="M139.577 176.134H139.386V178.962H139.577V176.134Z" fill="#12A3A5"/>
<path d="M140.597 176.134H140.406V178.962H140.597V176.134Z" fill="#12A3A5"/>
<path d="M141.617 176.134H141.426V178.962H141.617V176.134Z" fill="#12A3A5"/>
<path d="M142.637 176.134H142.446V178.962H142.637V176.134Z" fill="#12A3A5"/>
<path d="M143.657 176.134H143.466V178.962H143.657V176.134Z" fill="#12A3A5"/>
<path d="M144.677 176.134H144.486V178.962H144.677V176.134Z" fill="#12A3A5"/>
<path d="M145.697 176.134H145.506V178.962H145.697V176.134Z" fill="#12A3A5"/>
<path d="M146.717 176.134H146.526V178.962H146.717V176.134Z" fill="#12A3A5"/>
<path d="M147.737 176.134H147.546V178.962H147.737V176.134Z" fill="#12A3A5"/>
<path d="M148.757 176.134H148.566V178.962H148.757V176.134Z" fill="#12A3A5"/>
<path d="M149.777 176.134H149.586V178.962H149.777V176.134Z" fill="#12A3A5"/>
<path d="M149.92 175.964H138.217V176.304H149.92V175.964Z" fill="#12A3A5"/>
<path d="M149.92 178.684H138.217V179.024H149.92V178.684Z" fill="#12A3A5"/>
<path opacity="0.6" d="M147.404 186.123H140.733V192.794H147.404V186.123Z" fill="white"/>
<path d="M143.949 186.64H141.256V192.27H143.949V186.64Z" fill="#12A3A5"/>
<path d="M146.88 186.646H144.187V192.277H146.88V186.646Z" fill="#12A3A5"/>
<g opacity="0.2">
<path d="M143.949 186.64H141.256V192.27H143.949V186.64Z" fill="white"/>
<path d="M146.88 186.646H144.187V192.277H146.88V186.646Z" fill="white"/>
</g>
<path d="M138.557 193.474H138.366V196.302H138.557V193.474Z" fill="#12A3A5"/>
<path d="M139.577 193.474H139.386V196.302H139.577V193.474Z" fill="#12A3A5"/>
<path d="M140.597 193.474H140.406V196.302H140.597V193.474Z" fill="#12A3A5"/>
<path d="M141.617 193.474H141.426V196.302H141.617V193.474Z" fill="#12A3A5"/>
<path d="M142.637 193.474H142.446V196.302H142.637V193.474Z" fill="#12A3A5"/>
<path d="M143.657 193.474H143.466V196.302H143.657V193.474Z" fill="#12A3A5"/>
<path d="M144.677 193.474H144.486V196.302H144.677V193.474Z" fill="#12A3A5"/>
<path d="M145.697 193.474H145.506V196.302H145.697V193.474Z" fill="#12A3A5"/>
<path d="M146.717 193.474H146.526V196.302H146.717V193.474Z" fill="#12A3A5"/>
<path d="M147.737 193.474H147.546V196.302H147.737V193.474Z" fill="#12A3A5"/>
<path d="M148.757 193.474H148.566V196.302H148.757V193.474Z" fill="#12A3A5"/>
<path d="M149.777 193.474H149.586V196.302H149.777V193.474Z" fill="#12A3A5"/>
<path d="M149.92 193.304H138.217V193.644H149.92V193.304Z" fill="#12A3A5"/>
<path d="M149.92 196.024H138.217V196.364H149.92V196.024Z" fill="#12A3A5"/>
<path opacity="0.6" d="M147.404 203.463H140.733V210.134H147.404V203.463Z" fill="white"/>
<path d="M143.949 203.98H141.256V209.61H143.949V203.98Z" fill="#12A3A5"/>
<path d="M146.88 203.986H144.187V209.617H146.88V203.986Z" fill="#12A3A5"/>
<g opacity="0.2">
<path d="M143.949 203.98H141.256V209.61H143.949V203.98Z" fill="white"/>
<path d="M146.88 203.986H144.187V209.617H146.88V203.986Z" fill="white"/>
</g>
<path d="M138.557 210.814H138.366V213.642H138.557V210.814Z" fill="#12A3A5"/>
<path d="M139.577 210.814H139.386V213.642H139.577V210.814Z" fill="#12A3A5"/>
<path d="M140.597 210.814H140.406V213.642H140.597V210.814Z" fill="#12A3A5"/>
<path d="M141.617 210.814H141.426V213.642H141.617V210.814Z" fill="#12A3A5"/>
<path d="M142.637 210.814H142.446V213.642H142.637V210.814Z" fill="#12A3A5"/>
<path d="M143.657 210.814H143.466V213.642H143.657V210.814Z" fill="#12A3A5"/>
<path d="M144.677 210.814H144.486V213.642H144.677V210.814Z" fill="#12A3A5"/>
<path d="M145.697 210.814H145.506V213.642H145.697V210.814Z" fill="#12A3A5"/>
<path d="M146.717 210.814H146.526V213.642H146.717V210.814Z" fill="#12A3A5"/>
<path d="M147.737 210.814H147.546V213.642H147.737V210.814Z" fill="#12A3A5"/>
<path d="M148.757 210.814H148.566V213.642H148.757V210.814Z" fill="#12A3A5"/>
<path d="M149.777 210.814H149.586V213.642H149.777V210.814Z" fill="#12A3A5"/>
<path d="M149.92 210.644H138.217V210.984H149.92V210.644Z" fill="#12A3A5"/>
<path d="M149.92 213.364H138.217V213.704H149.92V213.364Z" fill="#12A3A5"/>
<path opacity="0.6" d="M147.404 220.803H140.733V227.474H147.404V220.803Z" fill="white"/>
<path d="M143.949 221.32H141.256V226.95H143.949V221.32Z" fill="#12A3A5"/>
<path d="M146.88 221.326H144.187V226.957H146.88V221.326Z" fill="#12A3A5"/>
<g opacity="0.2">
<path d="M143.949 221.32H141.256V226.95H143.949V221.32Z" fill="white"/>
<path d="M146.88 221.326H144.187V226.957H146.88V221.326Z" fill="white"/>
</g>
<path d="M138.557 228.154H138.366V230.982H138.557V228.154Z" fill="#12A3A5"/>
<path d="M139.577 228.154H139.386V230.982H139.577V228.154Z" fill="#12A3A5"/>
<path d="M140.597 228.154H140.406V230.982H140.597V228.154Z" fill="#12A3A5"/>
<path d="M141.617 228.154H141.426V230.982H141.617V228.154Z" fill="#12A3A5"/>
<path d="M142.637 228.154H142.446V230.982H142.637V228.154Z" fill="#12A3A5"/>
<path d="M143.657 228.154H143.466V230.982H143.657V228.154Z" fill="#12A3A5"/>
<path d="M144.677 228.154H144.486V230.982H144.677V228.154Z" fill="#12A3A5"/>
<path d="M145.697 228.154H145.506V230.982H145.697V228.154Z" fill="#12A3A5"/>
<path d="M146.717 228.154H146.526V230.982H146.717V228.154Z" fill="#12A3A5"/>
<path d="M147.737 228.154H147.546V230.982H147.737V228.154Z" fill="#12A3A5"/>
<path d="M148.757 228.154H148.566V230.982H148.757V228.154Z" fill="#12A3A5"/>
<path d="M149.777 228.154H149.586V230.982H149.777V228.154Z" fill="#12A3A5"/>
<path d="M149.92 227.984H138.217V228.324H149.92V227.984Z" fill="#12A3A5"/>
<path d="M149.92 230.704H138.217V231.044H149.92V230.704Z" fill="#12A3A5"/>
<path opacity="0.6" d="M128.629 134.103H121.958V140.774H128.629V134.103Z" fill="white"/>
<path d="M125.168 134.62H122.475V140.25H125.168V134.62Z" fill="#12A3A5"/>
<path d="M128.105 134.626H125.412V140.257H128.105V134.626Z" fill="#12A3A5"/>
<g opacity="0.2">
<path d="M125.168 134.62H122.475V140.25H125.168V134.62Z" fill="white"/>
<path d="M128.105 134.626H125.412V140.257H128.105V134.626Z" fill="white"/>
</g>
<path d="M119.775 141.454H119.585V144.282H119.775V141.454Z" fill="#12A3A5"/>
<path d="M120.795 141.454H120.605V144.282H120.795V141.454Z" fill="#12A3A5"/>
<path d="M121.815 141.454H121.625V144.282H121.815V141.454Z" fill="#12A3A5"/>
<path d="M122.835 141.454H122.645V144.282H122.835V141.454Z" fill="#12A3A5"/>
<path d="M123.855 141.454H123.665V144.282H123.855V141.454Z" fill="#12A3A5"/>
<path d="M124.875 141.454H124.685V144.282H124.875V141.454Z" fill="#12A3A5"/>
<path d="M125.895 141.454H125.705V144.282H125.895V141.454Z" fill="#12A3A5"/>
<path d="M126.915 141.454H126.725V144.282H126.915V141.454Z" fill="#12A3A5"/>
<path d="M127.935 141.454H127.745V144.282H127.935V141.454Z" fill="#12A3A5"/>
<path d="M128.955 141.454H128.765V144.282H128.955V141.454Z" fill="#12A3A5"/>
<path d="M129.975 141.454H129.785V144.282H129.975V141.454Z" fill="#12A3A5"/>
<path d="M130.995 141.454H130.805V144.282H130.995V141.454Z" fill="#12A3A5"/>
<path d="M131.145 141.284H119.442V141.624H131.145V141.284Z" fill="#12A3A5"/>
<path d="M131.145 144.004H119.442V144.344H131.145V144.004Z" fill="#12A3A5"/>
<path opacity="0.6" d="M128.629 151.443H121.958V158.114H128.629V151.443Z" fill="white"/>
<path d="M125.168 151.96H122.475V157.59H125.168V151.96Z" fill="#12A3A5"/>
<path d="M128.105 151.966H125.412V157.597H128.105V151.966Z" fill="#12A3A5"/>
<g opacity="0.2">
<path d="M125.168 151.96H122.475V157.59H125.168V151.96Z" fill="white"/>
<path d="M128.105 151.966H125.412V157.597H128.105V151.966Z" fill="white"/>
</g>
<path d="M119.775 158.794H119.585V161.622H119.775V158.794Z" fill="#12A3A5"/>
<path d="M120.795 158.794H120.605V161.622H120.795V158.794Z" fill="#12A3A5"/>
<path d="M121.815 158.794H121.625V161.622H121.815V158.794Z" fill="#12A3A5"/>
<path d="M122.835 158.794H122.645V161.622H122.835V158.794Z" fill="#12A3A5"/>
<path d="M123.855 158.794H123.665V161.622H123.855V158.794Z" fill="#12A3A5"/>
<path d="M124.875 158.794H124.685V161.622H124.875V158.794Z" fill="#12A3A5"/>
<path d="M125.895 158.794H125.705V161.622H125.895V158.794Z" fill="#12A3A5"/>
<path d="M126.915 158.794H126.725V161.622H126.915V158.794Z" fill="#12A3A5"/>
<path d="M127.935 158.794H127.745V161.622H127.935V158.794Z" fill="#12A3A5"/>
<path d="M128.955 158.794H128.765V161.622H128.955V158.794Z" fill="#12A3A5"/>
<path d="M129.975 158.794H129.785V161.622H129.975V158.794Z" fill="#12A3A5"/>
<path d="M130.995 158.794H130.805V161.622H130.995V158.794Z" fill="#12A3A5"/>
<path d="M131.145 158.624H119.442V158.964H131.145V158.624Z" fill="#12A3A5"/>
<path d="M131.145 161.344H119.442V161.684H131.145V161.344Z" fill="#12A3A5"/>
<path opacity="0.6" d="M128.629 168.783H121.958V175.454H128.629V168.783Z" fill="white"/>
<path d="M125.168 169.3H122.475V174.93H125.168V169.3Z" fill="#12A3A5"/>
<path d="M128.105 169.306H125.412V174.937H128.105V169.306Z" fill="#12A3A5"/>
<g opacity="0.2">
<path d="M125.168 169.3H122.475V174.93H125.168V169.3Z" fill="white"/>
<path d="M128.105 169.306H125.412V174.937H128.105V169.306Z" fill="white"/>
</g>
<path d="M119.775 176.134H119.585V178.962H119.775V176.134Z" fill="#12A3A5"/>
<path d="M120.795 176.134H120.605V178.962H120.795V176.134Z" fill="#12A3A5"/>
<path d="M121.815 176.134H121.625V178.962H121.815V176.134Z" fill="#12A3A5"/>
<path d="M122.835 176.134H122.645V178.962H122.835V176.134Z" fill="#12A3A5"/>
<path d="M123.855 176.134H123.665V178.962H123.855V176.134Z" fill="#12A3A5"/>
<path d="M124.875 176.134H124.685V178.962H124.875V176.134Z" fill="#12A3A5"/>
<path d="M125.895 176.134H125.705V178.962H125.895V176.134Z" fill="#12A3A5"/>
<path d="M126.915 176.134H126.725V178.962H126.915V176.134Z" fill="#12A3A5"/>
<path d="M127.935 176.134H127.745V178.962H127.935V176.134Z" fill="#12A3A5"/>
<path d="M128.955 176.134H128.765V178.962H128.955V176.134Z" fill="#12A3A5"/>
<path d="M129.975 176.134H129.785V178.962H129.975V176.134Z" fill="#12A3A5"/>
<path d="M130.995 176.134H130.805V178.962H130.995V176.134Z" fill="#12A3A5"/>
<path d="M131.145 175.964H119.442V176.304H131.145V175.964Z" fill="#12A3A5"/>
<path d="M131.145 178.684H119.442V179.024H131.145V178.684Z" fill="#12A3A5"/>
<path opacity="0.6" d="M128.629 186.123H121.958V192.794H128.629V186.123Z" fill="white"/>
<path d="M125.168 186.64H122.475V192.27H125.168V186.64Z" fill="#12A3A5"/>
<path d="M128.105 186.646H125.412V192.277H128.105V186.646Z" fill="#12A3A5"/>
<g opacity="0.2">
<path d="M125.168 186.64H122.475V192.27H125.168V186.64Z" fill="white"/>
<path d="M128.105 186.646H125.412V192.277H128.105V186.646Z" fill="white"/>
</g>
<path d="M119.775 193.474H119.585V196.302H119.775V193.474Z" fill="#12A3A5"/>
<path d="M120.795 193.474H120.605V196.302H120.795V193.474Z" fill="#12A3A5"/>
<path d="M121.815 193.474H121.625V196.302H121.815V193.474Z" fill="#12A3A5"/>
<path d="M122.835 193.474H122.645V196.302H122.835V193.474Z" fill="#12A3A5"/>
<path d="M123.855 193.474H123.665V196.302H123.855V193.474Z" fill="#12A3A5"/>
<path d="M124.875 193.474H124.685V196.302H124.875V193.474Z" fill="#12A3A5"/>
<path d="M125.895 193.474H125.705V196.302H125.895V193.474Z" fill="#12A3A5"/>
<path d="M126.915 193.474H126.725V196.302H126.915V193.474Z" fill="#12A3A5"/>
<path d="M127.935 193.474H127.745V196.302H127.935V193.474Z" fill="#12A3A5"/>
<path d="M128.955 193.474H128.765V196.302H128.955V193.474Z" fill="#12A3A5"/>
<path d="M129.975 193.474H129.785V196.302H129.975V193.474Z" fill="#12A3A5"/>
<path d="M130.995 193.474H130.805V196.302H130.995V193.474Z" fill="#12A3A5"/>
<path d="M131.145 193.304H119.442V193.644H131.145V193.304Z" fill="#12A3A5"/>
<path d="M131.145 196.024H119.442V196.364H131.145V196.024Z" fill="#12A3A5"/>
<path opacity="0.6" d="M128.629 203.463H121.958V210.134H128.629V203.463Z" fill="white"/>
<path d="M125.168 203.98H122.475V209.61H125.168V203.98Z" fill="#12A3A5"/>
<path d="M128.105 203.986H125.412V209.617H128.105V203.986Z" fill="#12A3A5"/>
<g opacity="0.2">
<path d="M125.168 203.98H122.475V209.61H125.168V203.98Z" fill="white"/>
<path d="M128.105 203.986H125.412V209.617H128.105V203.986Z" fill="white"/>
</g>
<path d="M119.775 210.814H119.585V213.642H119.775V210.814Z" fill="#12A3A5"/>
<path d="M120.795 210.814H120.605V213.642H120.795V210.814Z" fill="#12A3A5"/>
<path d="M121.815 210.814H121.625V213.642H121.815V210.814Z" fill="#12A3A5"/>
<path d="M122.835 210.814H122.645V213.642H122.835V210.814Z" fill="#12A3A5"/>
<path d="M123.855 210.814H123.665V213.642H123.855V210.814Z" fill="#12A3A5"/>
<path d="M124.875 210.814H124.685V213.642H124.875V210.814Z" fill="#12A3A5"/>
<path d="M125.895 210.814H125.705V213.642H125.895V210.814Z" fill="#12A3A5"/>
<path d="M126.915 210.814H126.725V213.642H126.915V210.814Z" fill="#12A3A5"/>
<path d="M127.935 210.814H127.745V213.642H127.935V210.814Z" fill="#12A3A5"/>
<path d="M128.955 210.814H128.765V213.642H128.955V210.814Z" fill="#12A3A5"/>
<path d="M129.975 210.814H129.785V213.642H129.975V210.814Z" fill="#12A3A5"/>
<path d="M130.995 210.814H130.805V213.642H130.995V210.814Z" fill="#12A3A5"/>
<path d="M131.145 210.644H119.442V210.984H131.145V210.644Z" fill="#12A3A5"/>
<path d="M131.145 213.364H119.442V213.704H131.145V213.364Z" fill="#12A3A5"/>
<path opacity="0.6" d="M128.629 220.803H121.958V227.474H128.629V220.803Z" fill="white"/>
<path d="M125.168 221.32H122.475V226.95H125.168V221.32Z" fill="#12A3A5"/>
<path d="M128.105 221.326H125.412V226.957H128.105V221.326Z" fill="#12A3A5"/>
<g opacity="0.2">
<path d="M125.168 221.32H122.475V226.95H125.168V221.32Z" fill="white"/>
<path d="M128.105 221.326H125.412V226.957H128.105V221.326Z" fill="white"/>
</g>
<path d="M119.775 228.154H119.585V230.982H119.775V228.154Z" fill="#12A3A5"/>
<path d="M120.795 228.154H120.605V230.982H120.795V228.154Z" fill="#12A3A5"/>
<path d="M121.815 228.154H121.625V230.982H121.815V228.154Z" fill="#12A3A5"/>
<path d="M122.835 228.154H122.645V230.982H122.835V228.154Z" fill="#12A3A5"/>
<path d="M123.855 228.154H123.665V230.982H123.855V228.154Z" fill="#12A3A5"/>
<path d="M124.875 228.154H124.685V230.982H124.875V228.154Z" fill="#12A3A5"/>
<path d="M125.895 228.154H125.705V230.982H125.895V228.154Z" fill="#12A3A5"/>
<path d="M126.915 228.154H126.725V230.982H126.915V228.154Z" fill="#12A3A5"/>
<path d="M127.935 228.154H127.745V230.982H127.935V228.154Z" fill="#12A3A5"/>
<path d="M128.955 228.154H128.765V230.982H128.955V228.154Z" fill="#12A3A5"/>
<path d="M129.975 228.154H129.785V230.982H129.975V228.154Z" fill="#12A3A5"/>
<path d="M130.995 228.154H130.805V230.982H130.995V228.154Z" fill="#12A3A5"/>
<path d="M131.145 227.984H119.442V228.324H131.145V227.984Z" fill="#12A3A5"/>
<path d="M131.145 230.704H119.442V231.044H131.145V230.704Z" fill="#12A3A5"/>
<path opacity="0.6" d="M109.854 134.103H103.183V140.774H109.854V134.103Z" fill="white"/>
<path d="M106.393 134.62H103.7V140.25H106.393V134.62Z" fill="#12A3A5"/>
<path d="M109.33 134.626H106.638V140.257H109.33V134.626Z" fill="#12A3A5"/>
<g opacity="0.2">
<path d="M106.393 134.62H103.7V140.25H106.393V134.62Z" fill="white"/>
<path d="M109.33 134.626H106.638V140.257H109.33V134.626Z" fill="white"/>
</g>
<path d="M101 141.454H100.81V144.282H101V141.454Z" fill="#12A3A5"/>
<path d="M102.02 141.454H101.83V144.282H102.02V141.454Z" fill="#12A3A5"/>
<path d="M103.04 141.454H102.85V144.282H103.04V141.454Z" fill="#12A3A5"/>
<path d="M104.06 141.454H103.87V144.282H104.06V141.454Z" fill="#12A3A5"/>
<path d="M105.08 141.454H104.89V144.282H105.08V141.454Z" fill="#12A3A5"/>
<path d="M106.1 141.454H105.91V144.282H106.1V141.454Z" fill="#12A3A5"/>
<path d="M107.12 141.454H106.93V144.282H107.12V141.454Z" fill="#12A3A5"/>
<path d="M108.14 141.454H107.95V144.282H108.14V141.454Z" fill="#12A3A5"/>
<path d="M109.16 141.454H108.97V144.282H109.16V141.454Z" fill="#12A3A5"/>
<path d="M110.18 141.454H109.99V144.282H110.18V141.454Z" fill="#12A3A5"/>
<path d="M111.2 141.454H111.01V144.282H111.2V141.454Z" fill="#12A3A5"/>
<path d="M112.22 141.454H112.03V144.282H112.22V141.454Z" fill="#12A3A5"/>
<path d="M112.37 141.284H100.667V141.624H112.37V141.284Z" fill="#12A3A5"/>
<path d="M112.37 144.004H100.667V144.344H112.37V144.004Z" fill="#12A3A5"/>
<path opacity="0.6" d="M109.854 151.443H103.183V158.114H109.854V151.443Z" fill="white"/>
<path d="M106.393 151.96H103.7V157.59H106.393V151.96Z" fill="#12A3A5"/>
<path d="M109.33 151.966H106.638V157.597H109.33V151.966Z" fill="#12A3A5"/>
<g opacity="0.2">
<path d="M106.393 151.96H103.7V157.59H106.393V151.96Z" fill="white"/>
<path d="M109.33 151.966H106.638V157.597H109.33V151.966Z" fill="white"/>
</g>
<path d="M101 158.794H100.81V161.622H101V158.794Z" fill="#12A3A5"/>
<path d="M102.02 158.794H101.83V161.622H102.02V158.794Z" fill="#12A3A5"/>
<path d="M103.04 158.794H102.85V161.622H103.04V158.794Z" fill="#12A3A5"/>
<path d="M104.06 158.794H103.87V161.622H104.06V158.794Z" fill="#12A3A5"/>
<path d="M105.08 158.794H104.89V161.622H105.08V158.794Z" fill="#12A3A5"/>
<path d="M106.1 158.794H105.91V161.622H106.1V158.794Z" fill="#12A3A5"/>
<path d="M107.12 158.794H106.93V161.622H107.12V158.794Z" fill="#12A3A5"/>
<path d="M108.14 158.794H107.95V161.622H108.14V158.794Z" fill="#12A3A5"/>
<path d="M109.16 158.794H108.97V161.622H109.16V158.794Z" fill="#12A3A5"/>
<path d="M110.18 158.794H109.99V161.622H110.18V158.794Z" fill="#12A3A5"/>
<path d="M111.2 158.794H111.01V161.622H111.2V158.794Z" fill="#12A3A5"/>
<path d="M112.22 158.794H112.03V161.622H112.22V158.794Z" fill="#12A3A5"/>
<path d="M112.37 158.624H100.667V158.964H112.37V158.624Z" fill="#12A3A5"/>
<path d="M112.37 161.344H100.667V161.684H112.37V161.344Z" fill="#12A3A5"/>
<path opacity="0.6" d="M109.854 168.783H103.183V175.454H109.854V168.783Z" fill="white"/>
<path d="M106.393 169.3H103.7V174.93H106.393V169.3Z" fill="#12A3A5"/>
<path d="M109.33 169.306H106.638V174.937H109.33V169.306Z" fill="#12A3A5"/>
<g opacity="0.2">
<path d="M106.393 169.3H103.7V174.93H106.393V169.3Z" fill="white"/>
<path d="M109.33 169.306H106.638V174.937H109.33V169.306Z" fill="white"/>
</g>
<path d="M101 176.134H100.81V178.962H101V176.134Z" fill="#12A3A5"/>
<path d="M102.02 176.134H101.83V178.962H102.02V176.134Z" fill="#12A3A5"/>
<path d="M103.04 176.134H102.85V178.962H103.04V176.134Z" fill="#12A3A5"/>
<path d="M104.06 176.134H103.87V178.962H104.06V176.134Z" fill="#12A3A5"/>
<path d="M105.08 176.134H104.89V178.962H105.08V176.134Z" fill="#12A3A5"/>
<path d="M106.1 176.134H105.91V178.962H106.1V176.134Z" fill="#12A3A5"/>
<path d="M107.12 176.134H106.93V178.962H107.12V176.134Z" fill="#12A3A5"/>
<path d="M108.14 176.134H107.95V178.962H108.14V176.134Z" fill="#12A3A5"/>
<path d="M109.16 176.134H108.97V178.962H109.16V176.134Z" fill="#12A3A5"/>
<path d="M110.18 176.134H109.99V178.962H110.18V176.134Z" fill="#12A3A5"/>
<path d="M111.2 176.134H111.01V178.962H111.2V176.134Z" fill="#12A3A5"/>
<path d="M112.22 176.134H112.03V178.962H112.22V176.134Z" fill="#12A3A5"/>
<path d="M112.37 175.964H100.667V176.304H112.37V175.964Z" fill="#12A3A5"/>
<path d="M112.37 178.684H100.667V179.024H112.37V178.684Z" fill="#12A3A5"/>
<path opacity="0.6" d="M109.854 186.123H103.183V192.794H109.854V186.123Z" fill="white"/>
<path d="M106.393 186.64H103.7V192.27H106.393V186.64Z" fill="#12A3A5"/>
<path d="M109.33 186.646H106.638V192.277H109.33V186.646Z" fill="#12A3A5"/>
<g opacity="0.2">
<path d="M106.393 186.64H103.7V192.27H106.393V186.64Z" fill="white"/>
<path d="M109.33 186.646H106.638V192.277H109.33V186.646Z" fill="white"/>
</g>
<path d="M101 193.474H100.81V196.302H101V193.474Z" fill="#12A3A5"/>
<path d="M102.02 193.474H101.83V196.302H102.02V193.474Z" fill="#12A3A5"/>
<path d="M103.04 193.474H102.85V196.302H103.04V193.474Z" fill="#12A3A5"/>
<path d="M104.06 193.474H103.87V196.302H104.06V193.474Z" fill="#12A3A5"/>
<path d="M105.08 193.474H104.89V196.302H105.08V193.474Z" fill="#12A3A5"/>
<path d="M106.1 193.474H105.91V196.302H106.1V193.474Z" fill="#12A3A5"/>
<path d="M107.12 193.474H106.93V196.302H107.12V193.474Z" fill="#12A3A5"/>
<path d="M108.14 193.474H107.95V196.302H108.14V193.474Z" fill="#12A3A5"/>
<path d="M109.16 193.474H108.97V196.302H109.16V193.474Z" fill="#12A3A5"/>
<path d="M110.18 193.474H109.99V196.302H110.18V193.474Z" fill="#12A3A5"/>
<path d="M111.2 193.474H111.01V196.302H111.2V193.474Z" fill="#12A3A5"/>
<path d="M112.22 193.474H112.03V196.302H112.22V193.474Z" fill="#12A3A5"/>
<path d="M112.37 193.304H100.667V193.644H112.37V193.304Z" fill="#12A3A5"/>
<path d="M112.37 196.024H100.667V196.364H112.37V196.024Z" fill="#12A3A5"/>
<path opacity="0.6" d="M109.854 203.463H103.183V210.134H109.854V203.463Z" fill="white"/>
<path d="M106.393 203.98H103.7V209.61H106.393V203.98Z" fill="#12A3A5"/>
<path d="M109.33 203.986H106.638V209.617H109.33V203.986Z" fill="#12A3A5"/>
<g opacity="0.2">
<path d="M106.393 203.98H103.7V209.61H106.393V203.98Z" fill="white"/>
<path d="M109.33 203.986H106.638V209.617H109.33V203.986Z" fill="white"/>
</g>
<path d="M101 210.814H100.81V213.642H101V210.814Z" fill="#12A3A5"/>
<path d="M102.02 210.814H101.83V213.642H102.02V210.814Z" fill="#12A3A5"/>
<path d="M103.04 210.814H102.85V213.642H103.04V210.814Z" fill="#12A3A5"/>
<path d="M104.06 210.814H103.87V213.642H104.06V210.814Z" fill="#12A3A5"/>
<path d="M105.08 210.814H104.89V213.642H105.08V210.814Z" fill="#12A3A5"/>
<path d="M106.1 210.814H105.91V213.642H106.1V210.814Z" fill="#12A3A5"/>
<path d="M107.12 210.814H106.93V213.642H107.12V210.814Z" fill="#12A3A5"/>
<path d="M108.14 210.814H107.95V213.642H108.14V210.814Z" fill="#12A3A5"/>
<path d="M109.16 210.814H108.97V213.642H109.16V210.814Z" fill="#12A3A5"/>
<path d="M110.18 210.814H109.99V213.642H110.18V210.814Z" fill="#12A3A5"/>
<path d="M111.2 210.814H111.01V213.642H111.2V210.814Z" fill="#12A3A5"/>
<path d="M112.22 210.814H112.03V213.642H112.22V210.814Z" fill="#12A3A5"/>
<path d="M112.37 210.644H100.667V210.984H112.37V210.644Z" fill="#12A3A5"/>
<path d="M112.37 213.364H100.667V213.704H112.37V213.364Z" fill="#12A3A5"/>
<path opacity="0.6" d="M109.854 220.803H103.183V227.474H109.854V220.803Z" fill="white"/>
<path d="M106.393 221.32H103.7V226.95H106.393V221.32Z" fill="#12A3A5"/>
<path d="M109.33 221.326H106.638V226.957H109.33V221.326Z" fill="#12A3A5"/>
<g opacity="0.2">
<path d="M106.393 221.32H103.7V226.95H106.393V221.32Z" fill="white"/>
<path d="M109.33 221.326H106.638V226.957H109.33V221.326Z" fill="white"/>
</g>
<path d="M101 228.154H100.81V230.982H101V228.154Z" fill="#12A3A5"/>
<path d="M102.02 228.154H101.83V230.982H102.02V228.154Z" fill="#12A3A5"/>
<path d="M103.04 228.154H102.85V230.982H103.04V228.154Z" fill="#12A3A5"/>
<path d="M104.06 228.154H103.87V230.982H104.06V228.154Z" fill="#12A3A5"/>
<path d="M105.08 228.154H104.89V230.982H105.08V228.154Z" fill="#12A3A5"/>
<path d="M106.1 228.154H105.91V230.982H106.1V228.154Z" fill="#12A3A5"/>
<path d="M107.12 228.154H106.93V230.982H107.12V228.154Z" fill="#12A3A5"/>
<path d="M108.14 228.154H107.95V230.982H108.14V228.154Z" fill="#12A3A5"/>
<path d="M109.16 228.154H108.97V230.982H109.16V228.154Z" fill="#12A3A5"/>
<path d="M110.18 228.154H109.99V230.982H110.18V228.154Z" fill="#12A3A5"/>
<path d="M111.2 228.154H111.01V230.982H111.2V228.154Z" fill="#12A3A5"/>
<path d="M112.22 228.154H112.03V230.982H112.22V228.154Z" fill="#12A3A5"/>
<path d="M112.37 227.984H100.667V228.324H112.37V227.984Z" fill="#12A3A5"/>
<path d="M112.37 230.704H100.667V231.044H112.37V230.704Z" fill="#12A3A5"/>
<path opacity="0.6" d="M91.0793 134.103H84.4084V140.774H91.0793V134.103Z" fill="white"/>
<path d="M87.6179 134.62H84.925V140.25H87.6179V134.62Z" fill="#12A3A5"/>
<path d="M90.5488 134.626H87.856V140.257H90.5488V134.626Z" fill="#12A3A5"/>
<g opacity="0.2">
<path d="M87.6179 134.62H84.925V140.25H87.6179V134.62Z" fill="white"/>
<path d="M90.5488 134.626H87.856V140.257H90.5488V134.626Z" fill="white"/>
</g>
<path d="M82.2256 141.454H82.0352V144.282H82.2256V141.454Z" fill="#12A3A5"/>
<path d="M83.2456 141.454H83.0552V144.282H83.2456V141.454Z" fill="#12A3A5"/>
<path d="M84.2656 141.454H84.0752V144.282H84.2656V141.454Z" fill="#12A3A5"/>
<path d="M85.2856 141.454H85.0952V144.282H85.2856V141.454Z" fill="#12A3A5"/>
<path d="M86.3056 141.454H86.1152V144.282H86.3056V141.454Z" fill="#12A3A5"/>
<path d="M87.3257 141.454H87.1353V144.282H87.3257V141.454Z" fill="#12A3A5"/>
<path d="M88.3454 141.454H88.155V144.282H88.3454V141.454Z" fill="#12A3A5"/>
<path d="M89.3654 141.454H89.175V144.282H89.3654V141.454Z" fill="#12A3A5"/>
<path d="M90.3855 141.454H90.1951V144.282H90.3855V141.454Z" fill="#12A3A5"/>
<path d="M91.4055 141.454H91.2151V144.282H91.4055V141.454Z" fill="#12A3A5"/>
<path d="M92.4255 141.454H92.2351V144.282H92.4255V141.454Z" fill="#12A3A5"/>
<path d="M93.4455 141.454H93.2551V144.282H93.4455V141.454Z" fill="#12A3A5"/>
<path d="M93.5883 141.284H81.8855V141.624H93.5883V141.284Z" fill="#12A3A5"/>
<path d="M93.5883 144.004H81.8855V144.344H93.5883V144.004Z" fill="#12A3A5"/>
<path opacity="0.6" d="M91.0793 151.443H84.4084V158.114H91.0793V151.443Z" fill="white"/>
<path d="M87.6179 151.96H84.925V157.59H87.6179V151.96Z" fill="#12A3A5"/>
<path d="M90.5488 151.966H87.856V157.597H90.5488V151.966Z" fill="#12A3A5"/>
<g opacity="0.2">
<path d="M87.6179 151.96H84.925V157.59H87.6179V151.96Z" fill="white"/>
<path d="M90.5488 151.966H87.856V157.597H90.5488V151.966Z" fill="white"/>
</g>
<path d="M82.2256 158.794H82.0352V161.622H82.2256V158.794Z" fill="#12A3A5"/>
<path d="M83.2456 158.794H83.0552V161.622H83.2456V158.794Z" fill="#12A3A5"/>
<path d="M84.2656 158.794H84.0752V161.622H84.2656V158.794Z" fill="#12A3A5"/>
<path d="M85.2856 158.794H85.0952V161.622H85.2856V158.794Z" fill="#12A3A5"/>
<path d="M86.3056 158.794H86.1152V161.622H86.3056V158.794Z" fill="#12A3A5"/>
<path d="M87.3257 158.794H87.1353V161.622H87.3257V158.794Z" fill="#12A3A5"/>
<path d="M88.3454 158.794H88.155V161.622H88.3454V158.794Z" fill="#12A3A5"/>
<path d="M89.3654 158.794H89.175V161.622H89.3654V158.794Z" fill="#12A3A5"/>
<path d="M90.3855 158.794H90.1951V161.622H90.3855V158.794Z" fill="#12A3A5"/>
<path d="M91.4055 158.794H91.2151V161.622H91.4055V158.794Z" fill="#12A3A5"/>
<path d="M92.4255 158.794H92.2351V161.622H92.4255V158.794Z" fill="#12A3A5"/>
<path d="M93.4455 158.794H93.2551V161.622H93.4455V158.794Z" fill="#12A3A5"/>
<path d="M93.5883 158.624H81.8855V158.964H93.5883V158.624Z" fill="#12A3A5"/>
<path d="M93.5883 161.344H81.8855V161.684H93.5883V161.344Z" fill="#12A3A5"/>
<path opacity="0.6" d="M91.0793 168.783H84.4084V175.454H91.0793V168.783Z" fill="white"/>
<path d="M87.6179 169.3H84.925V174.93H87.6179V169.3Z" fill="#12A3A5"/>
<path d="M90.5488 169.306H87.856V174.937H90.5488V169.306Z" fill="#12A3A5"/>
<g opacity="0.2">
<path d="M87.6179 169.3H84.925V174.93H87.6179V169.3Z" fill="white"/>
<path d="M90.5488 169.306H87.856V174.937H90.5488V169.306Z" fill="white"/>
</g>
<path d="M82.2256 176.134H82.0352V178.962H82.2256V176.134Z" fill="#12A3A5"/>
<path d="M83.2456 176.134H83.0552V178.962H83.2456V176.134Z" fill="#12A3A5"/>
<path d="M84.2656 176.134H84.0752V178.962H84.2656V176.134Z" fill="#12A3A5"/>
<path d="M85.2856 176.134H85.0952V178.962H85.2856V176.134Z" fill="#12A3A5"/>
<path d="M86.3056 176.134H86.1152V178.962H86.3056V176.134Z" fill="#12A3A5"/>
<path d="M87.3257 176.134H87.1353V178.962H87.3257V176.134Z" fill="#12A3A5"/>
<path d="M88.3454 176.134H88.155V178.962H88.3454V176.134Z" fill="#12A3A5"/>
<path d="M89.3654 176.134H89.175V178.962H89.3654V176.134Z" fill="#12A3A5"/>
<path d="M90.3855 176.134H90.1951V178.962H90.3855V176.134Z" fill="#12A3A5"/>
<path d="M91.4055 176.134H91.2151V178.962H91.4055V176.134Z" fill="#12A3A5"/>
<path d="M92.4255 176.134H92.2351V178.962H92.4255V176.134Z" fill="#12A3A5"/>
<path d="M93.4455 176.134H93.2551V178.962H93.4455V176.134Z" fill="#12A3A5"/>
<path d="M93.5883 175.964H81.8855V176.304H93.5883V175.964Z" fill="#12A3A5"/>
<path d="M93.5883 178.684H81.8855V179.024H93.5883V178.684Z" fill="#12A3A5"/>
<path opacity="0.6" d="M91.0793 186.123H84.4084V192.794H91.0793V186.123Z" fill="white"/>
<path d="M87.6179 186.64H84.925V192.27H87.6179V186.64Z" fill="#12A3A5"/>
<path d="M90.5488 186.646H87.856V192.277H90.5488V186.646Z" fill="#12A3A5"/>
<g opacity="0.2">
<path d="M87.6179 186.64H84.925V192.27H87.6179V186.64Z" fill="white"/>
<path d="M90.5488 186.646H87.856V192.277H90.5488V186.646Z" fill="white"/>
</g>
<path d="M82.2256 193.474H82.0352V196.302H82.2256V193.474Z" fill="#12A3A5"/>
<path d="M83.2456 193.474H83.0552V196.302H83.2456V193.474Z" fill="#12A3A5"/>
<path d="M84.2656 193.474H84.0752V196.302H84.2656V193.474Z" fill="#12A3A5"/>
<path d="M85.2856 193.474H85.0952V196.302H85.2856V193.474Z" fill="#12A3A5"/>
<path d="M86.3056 193.474H86.1152V196.302H86.3056V193.474Z" fill="#12A3A5"/>
<path d="M87.3257 193.474H87.1353V196.302H87.3257V193.474Z" fill="#12A3A5"/>
<path d="M88.3454 193.474H88.155V196.302H88.3454V193.474Z" fill="#12A3A5"/>
<path d="M89.3654 193.474H89.175V196.302H89.3654V193.474Z" fill="#12A3A5"/>
<path d="M90.3855 193.474H90.1951V196.302H90.3855V193.474Z" fill="#12A3A5"/>
<path d="M91.4055 193.474H91.2151V196.302H91.4055V193.474Z" fill="#12A3A5"/>
<path d="M92.4255 193.474H92.2351V196.302H92.4255V193.474Z" fill="#12A3A5"/>
<path d="M93.4455 193.474H93.2551V196.302H93.4455V193.474Z" fill="#12A3A5"/>
<path d="M93.5883 193.304H81.8855V193.644H93.5883V193.304Z" fill="#12A3A5"/>
<path d="M93.5883 196.024H81.8855V196.364H93.5883V196.024Z" fill="#12A3A5"/>
<path opacity="0.6" d="M91.0793 203.463H84.4084V210.134H91.0793V203.463Z" fill="white"/>
<path d="M87.6179 203.98H84.925V209.61H87.6179V203.98Z" fill="#12A3A5"/>
<path d="M90.5488 203.986H87.856V209.617H90.5488V203.986Z" fill="#12A3A5"/>
<g opacity="0.2">
<path d="M87.6179 203.98H84.925V209.61H87.6179V203.98Z" fill="white"/>
<path d="M90.5488 203.986H87.856V209.617H90.5488V203.986Z" fill="white"/>
</g>
<path d="M82.2256 210.814H82.0352V213.642H82.2256V210.814Z" fill="#12A3A5"/>
<path d="M83.2456 210.814H83.0552V213.642H83.2456V210.814Z" fill="#12A3A5"/>
<path d="M84.2656 210.814H84.0752V213.642H84.2656V210.814Z" fill="#12A3A5"/>
<path d="M85.2856 210.814H85.0952V213.642H85.2856V210.814Z" fill="#12A3A5"/>
<path d="M86.3056 210.814H86.1152V213.642H86.3056V210.814Z" fill="#12A3A5"/>
<path d="M87.3257 210.814H87.1353V213.642H87.3257V210.814Z" fill="#12A3A5"/>
<path d="M88.3454 210.814H88.155V213.642H88.3454V210.814Z" fill="#12A3A5"/>
<path d="M89.3654 210.814H89.175V213.642H89.3654V210.814Z" fill="#12A3A5"/>
<path d="M90.3855 210.814H90.1951V213.642H90.3855V210.814Z" fill="#12A3A5"/>
<path d="M91.4055 210.814H91.2151V213.642H91.4055V210.814Z" fill="#12A3A5"/>
<path d="M92.4255 210.814H92.2351V213.642H92.4255V210.814Z" fill="#12A3A5"/>
<path d="M93.4455 210.814H93.2551V213.642H93.4455V210.814Z" fill="#12A3A5"/>
<path d="M93.5883 210.644H81.8855V210.984H93.5883V210.644Z" fill="#12A3A5"/>
<path d="M93.5883 213.364H81.8855V213.704H93.5883V213.364Z" fill="#12A3A5"/>
<path opacity="0.6" d="M91.0793 220.803H84.4084V227.474H91.0793V220.803Z" fill="white"/>
<path d="M87.6179 221.32H84.925V226.95H87.6179V221.32Z" fill="#12A3A5"/>
<path d="M90.5488 221.326H87.856V226.957H90.5488V221.326Z" fill="#12A3A5"/>
<g opacity="0.2">
<path d="M87.6179 221.32H84.925V226.95H87.6179V221.32Z" fill="white"/>
<path d="M90.5488 221.326H87.856V226.957H90.5488V221.326Z" fill="white"/>
</g>
<path d="M82.2256 228.154H82.0352V230.982H82.2256V228.154Z" fill="#12A3A5"/>
<path d="M83.2456 228.154H83.0552V230.982H83.2456V228.154Z" fill="#12A3A5"/>
<path d="M84.2656 228.154H84.0752V230.982H84.2656V228.154Z" fill="#12A3A5"/>
<path d="M85.2856 228.154H85.0952V230.982H85.2856V228.154Z" fill="#12A3A5"/>
<path d="M86.3056 228.154H86.1152V230.982H86.3056V228.154Z" fill="#12A3A5"/>
<path d="M87.3257 228.154H87.1353V230.982H87.3257V228.154Z" fill="#12A3A5"/>
<path d="M88.3454 228.154H88.155V230.982H88.3454V228.154Z" fill="#12A3A5"/>
<path d="M89.3654 228.154H89.175V230.982H89.3654V228.154Z" fill="#12A3A5"/>
<path d="M90.3855 228.154H90.1951V230.982H90.3855V228.154Z" fill="#12A3A5"/>
<path d="M91.4055 228.154H91.2151V230.982H91.4055V228.154Z" fill="#12A3A5"/>
<path d="M92.4255 228.154H92.2351V230.982H92.4255V228.154Z" fill="#12A3A5"/>
<path d="M93.4455 228.154H93.2551V230.982H93.4455V228.154Z" fill="#12A3A5"/>
<path d="M93.5883 227.984H81.8855V228.324H93.5883V227.984Z" fill="#12A3A5"/>
<path d="M93.5883 230.704H81.8855V231.044H93.5883V230.704Z" fill="#12A3A5"/>
<path opacity="0.6" d="M72.2975 134.103H65.6267V140.774H72.2975V134.103Z" fill="white"/>
<path d="M68.8432 134.62H66.1504V140.25H68.8432V134.62Z" fill="#12A3A5"/>
<path d="M71.7739 134.626H69.0811V140.257H71.7739V134.626Z" fill="#12A3A5"/>
<g opacity="0.2">
<path d="M68.8432 134.62H66.1504V140.25H68.8432V134.62Z" fill="white"/>
<path d="M71.7741 134.626H69.0813V140.257H71.7741V134.626Z" fill="white"/>
</g>
<path d="M63.4438 141.454H63.2534V144.282H63.4438V141.454Z" fill="#12A3A5"/>
<path d="M64.4638 141.454H64.2734V144.282H64.4638V141.454Z" fill="#12A3A5"/>
<path d="M65.4839 141.454H65.2935V144.282H65.4839V141.454Z" fill="#12A3A5"/>
<path d="M66.5039 141.454H66.3135V144.282H66.5039V141.454Z" fill="#12A3A5"/>
<path d="M67.5239 141.454H67.3335V144.282H67.5239V141.454Z" fill="#12A3A5"/>
<path d="M68.5439 141.454H68.3535V144.282H68.5439V141.454Z" fill="#12A3A5"/>
<path d="M69.5639 141.454H69.3735V144.282H69.5639V141.454Z" fill="#12A3A5"/>
<path d="M70.584 141.454H70.3936V144.282H70.584V141.454Z" fill="#12A3A5"/>
<path d="M71.604 141.454H71.4136V144.282H71.604V141.454Z" fill="#12A3A5"/>
<path d="M72.624 141.454H72.4336V144.282H72.624V141.454Z" fill="#12A3A5"/>
<path d="M73.644 141.454H73.4536V144.282H73.644V141.454Z" fill="#12A3A5"/>
<path d="M74.664 141.454H74.4736V144.282H74.664V141.454Z" fill="#12A3A5"/>
<path d="M74.8136 141.284H63.1108V141.624H74.8136V141.284Z" fill="#12A3A5"/>
<path d="M74.8136 144.004H63.1108V144.344H74.8136V144.004Z" fill="#12A3A5"/>
<path opacity="0.6" d="M72.2975 151.443H65.6267V158.114H72.2975V151.443Z" fill="white"/>
<path d="M68.8432 151.96H66.1504V157.59H68.8432V151.96Z" fill="#12A3A5"/>
<path d="M71.7739 151.966H69.0811V157.597H71.7739V151.966Z" fill="#12A3A5"/>
<g opacity="0.2">
<path d="M68.8432 151.96H66.1504V157.59H68.8432V151.96Z" fill="white"/>
<path d="M71.7741 151.966H69.0813V157.597H71.7741V151.966Z" fill="white"/>
</g>
<path d="M63.4438 158.794H63.2534V161.622H63.4438V158.794Z" fill="#12A3A5"/>
<path d="M64.4638 158.794H64.2734V161.622H64.4638V158.794Z" fill="#12A3A5"/>
<path d="M65.4839 158.794H65.2935V161.622H65.4839V158.794Z" fill="#12A3A5"/>
<path d="M66.5039 158.794H66.3135V161.622H66.5039V158.794Z" fill="#12A3A5"/>
<path d="M67.5239 158.794H67.3335V161.622H67.5239V158.794Z" fill="#12A3A5"/>
<path d="M68.5439 158.794H68.3535V161.622H68.5439V158.794Z" fill="#12A3A5"/>
<path d="M69.5639 158.794H69.3735V161.622H69.5639V158.794Z" fill="#12A3A5"/>
<path d="M70.584 158.794H70.3936V161.622H70.584V158.794Z" fill="#12A3A5"/>
<path d="M71.604 158.794H71.4136V161.622H71.604V158.794Z" fill="#12A3A5"/>
<path d="M72.624 158.794H72.4336V161.622H72.624V158.794Z" fill="#12A3A5"/>
<path d="M73.644 158.794H73.4536V161.622H73.644V158.794Z" fill="#12A3A5"/>
<path d="M74.664 158.794H74.4736V161.622H74.664V158.794Z" fill="#12A3A5"/>
<path d="M74.8136 158.624H63.1108V158.964H74.8136V158.624Z" fill="#12A3A5"/>
<path d="M74.8136 161.344H63.1108V161.684H74.8136V161.344Z" fill="#12A3A5"/>
<path opacity="0.6" d="M72.2975 168.783H65.6267V175.454H72.2975V168.783Z" fill="white"/>
<path d="M68.8432 169.3H66.1504V174.93H68.8432V169.3Z" fill="#12A3A5"/>
<path d="M71.7739 169.306H69.0811V174.937H71.7739V169.306Z" fill="#12A3A5"/>
<g opacity="0.2">
<path d="M68.8432 169.3H66.1504V174.93H68.8432V169.3Z" fill="white"/>
<path d="M71.7741 169.306H69.0813V174.937H71.7741V169.306Z" fill="white"/>
</g>
<path d="M63.4438 176.134H63.2534V178.962H63.4438V176.134Z" fill="#12A3A5"/>
<path d="M64.4638 176.134H64.2734V178.962H64.4638V176.134Z" fill="#12A3A5"/>
<path d="M65.4839 176.134H65.2935V178.962H65.4839V176.134Z" fill="#12A3A5"/>
<path d="M66.5039 176.134H66.3135V178.962H66.5039V176.134Z" fill="#12A3A5"/>
<path d="M67.5239 176.134H67.3335V178.962H67.5239V176.134Z" fill="#12A3A5"/>
<path d="M68.5439 176.134H68.3535V178.962H68.5439V176.134Z" fill="#12A3A5"/>
<path d="M69.5639 176.134H69.3735V178.962H69.5639V176.134Z" fill="#12A3A5"/>
<path d="M70.584 176.134H70.3936V178.962H70.584V176.134Z" fill="#12A3A5"/>
<path d="M71.604 176.134H71.4136V178.962H71.604V176.134Z" fill="#12A3A5"/>
<path d="M72.624 176.134H72.4336V178.962H72.624V176.134Z" fill="#12A3A5"/>
<path d="M73.644 176.134H73.4536V178.962H73.644V176.134Z" fill="#12A3A5"/>
<path d="M74.664 176.134H74.4736V178.962H74.664V176.134Z" fill="#12A3A5"/>
<path d="M74.8136 175.964H63.1108V176.304H74.8136V175.964Z" fill="#12A3A5"/>
<path d="M74.8136 178.684H63.1108V179.024H74.8136V178.684Z" fill="#12A3A5"/>
<path opacity="0.6" d="M72.2975 186.123H65.6267V192.794H72.2975V186.123Z" fill="white"/>
<path d="M68.8432 186.64H66.1504V192.27H68.8432V186.64Z" fill="#12A3A5"/>
<path d="M71.7739 186.646H69.0811V192.277H71.7739V186.646Z" fill="#12A3A5"/>
<g opacity="0.2">
<path d="M68.8432 186.64H66.1504V192.27H68.8432V186.64Z" fill="white"/>
<path d="M71.7741 186.646H69.0813V192.277H71.7741V186.646Z" fill="white"/>
</g>
<path d="M63.4438 193.474H63.2534V196.302H63.4438V193.474Z" fill="#12A3A5"/>
<path d="M64.4638 193.474H64.2734V196.302H64.4638V193.474Z" fill="#12A3A5"/>
<path d="M65.4839 193.474H65.2935V196.302H65.4839V193.474Z" fill="#12A3A5"/>
<path d="M66.5039 193.474H66.3135V196.302H66.5039V193.474Z" fill="#12A3A5"/>
<path d="M67.5239 193.474H67.3335V196.302H67.5239V193.474Z" fill="#12A3A5"/>
<path d="M68.5439 193.474H68.3535V196.302H68.5439V193.474Z" fill="#12A3A5"/>
<path d="M69.5639 193.474H69.3735V196.302H69.5639V193.474Z" fill="#12A3A5"/>
<path d="M70.584 193.474H70.3936V196.302H70.584V193.474Z" fill="#12A3A5"/>
<path d="M71.604 193.474H71.4136V196.302H71.604V193.474Z" fill="#12A3A5"/>
<path d="M72.624 193.474H72.4336V196.302H72.624V193.474Z" fill="#12A3A5"/>
<path d="M73.644 193.474H73.4536V196.302H73.644V193.474Z" fill="#12A3A5"/>
<path d="M74.664 193.474H74.4736V196.302H74.664V193.474Z" fill="#12A3A5"/>
<path d="M74.8136 193.304H63.1108V193.644H74.8136V193.304Z" fill="#12A3A5"/>
<path d="M74.8136 196.024H63.1108V196.364H74.8136V196.024Z" fill="#12A3A5"/>
<path opacity="0.6" d="M72.2975 203.463H65.6267V210.134H72.2975V203.463Z" fill="white"/>
<path d="M68.8432 203.98H66.1504V209.61H68.8432V203.98Z" fill="#12A3A5"/>
<path d="M71.7739 203.986H69.0811V209.617H71.7739V203.986Z" fill="#12A3A5"/>
<g opacity="0.2">
<path d="M68.8432 203.98H66.1504V209.61H68.8432V203.98Z" fill="white"/>
<path d="M71.7741 203.986H69.0813V209.617H71.7741V203.986Z" fill="white"/>
</g>
<path d="M63.4438 210.814H63.2534V213.642H63.4438V210.814Z" fill="#12A3A5"/>
<path d="M64.4638 210.814H64.2734V213.642H64.4638V210.814Z" fill="#12A3A5"/>
<path d="M65.4839 210.814H65.2935V213.642H65.4839V210.814Z" fill="#12A3A5"/>
<path d="M66.5039 210.814H66.3135V213.642H66.5039V210.814Z" fill="#12A3A5"/>
<path d="M67.5239 210.814H67.3335V213.642H67.5239V210.814Z" fill="#12A3A5"/>
<path d="M68.5439 210.814H68.3535V213.642H68.5439V210.814Z" fill="#12A3A5"/>
<path d="M69.5639 210.814H69.3735V213.642H69.5639V210.814Z" fill="#12A3A5"/>
<path d="M70.584 210.814H70.3936V213.642H70.584V210.814Z" fill="#12A3A5"/>
<path d="M71.604 210.814H71.4136V213.642H71.604V210.814Z" fill="#12A3A5"/>
<path d="M72.624 210.814H72.4336V213.642H72.624V210.814Z" fill="#12A3A5"/>
<path d="M73.644 210.814H73.4536V213.642H73.644V210.814Z" fill="#12A3A5"/>
<path d="M74.664 210.814H74.4736V213.642H74.664V210.814Z" fill="#12A3A5"/>
<path d="M74.8136 210.644H63.1108V210.984H74.8136V210.644Z" fill="#12A3A5"/>
<path d="M74.8136 213.364H63.1108V213.704H74.8136V213.364Z" fill="#12A3A5"/>
<path opacity="0.6" d="M72.2975 220.803H65.6267V227.474H72.2975V220.803Z" fill="white"/>
<path d="M68.8432 221.32H66.1504V226.95H68.8432V221.32Z" fill="#12A3A5"/>
<path d="M71.7739 221.326H69.0811V226.957H71.7739V221.326Z" fill="#12A3A5"/>
<g opacity="0.2">
<path d="M68.8432 221.32H66.1504V226.95H68.8432V221.32Z" fill="white"/>
<path d="M71.7741 221.326H69.0813V226.957H71.7741V221.326Z" fill="white"/>
</g>
<path d="M63.4438 228.154H63.2534V230.982H63.4438V228.154Z" fill="#12A3A5"/>
<path d="M64.4638 228.154H64.2734V230.982H64.4638V228.154Z" fill="#12A3A5"/>
<path d="M65.4839 228.154H65.2935V230.982H65.4839V228.154Z" fill="#12A3A5"/>
<path d="M66.5039 228.154H66.3135V230.982H66.5039V228.154Z" fill="#12A3A5"/>
<path d="M67.5239 228.154H67.3335V230.982H67.5239V228.154Z" fill="#12A3A5"/>
<path d="M68.5439 228.154H68.3535V230.982H68.5439V228.154Z" fill="#12A3A5"/>
<path d="M69.5639 228.154H69.3735V230.982H69.5639V228.154Z" fill="#12A3A5"/>
<path d="M70.584 228.154H70.3936V230.982H70.584V228.154Z" fill="#12A3A5"/>
<path d="M71.604 228.154H71.4136V230.982H71.604V228.154Z" fill="#12A3A5"/>
<path d="M72.624 228.154H72.4336V230.982H72.624V228.154Z" fill="#12A3A5"/>
<path d="M73.644 228.154H73.4536V230.982H73.644V228.154Z" fill="#12A3A5"/>
<path d="M74.664 228.154H74.4736V230.982H74.664V228.154Z" fill="#12A3A5"/>
<path d="M74.8136 227.984H63.1108V228.324H74.8136V227.984Z" fill="#12A3A5"/>
<path d="M74.8136 230.704H63.1108V231.044H74.8136V230.704Z" fill="#12A3A5"/>
<path opacity="0.2" d="M116.96 131.24H98.5999V245.48H95.8799V124.44H116.96V131.24Z" fill="black"/>
<path d="M161.48 128.296H51.5508L58.3508 115.6H154.68L161.48 128.296Z" fill="#12A3A5"/>
<path d="M162.166 127.384H50.8708V129.424H162.166V127.384Z" fill="#12A3A5"/>
<path opacity="0.3" d="M162.166 127.384H50.8708V129.424H162.166V127.384Z" fill="white"/>
<path d="M138.815 105.4H74.2151V121.496H138.815V105.4Z" fill="#12A3A5"/>
<path opacity="0.3" d="M138.815 105.4H74.2151V121.496H138.815V105.4Z" fill="white"/>
<path d="M85.2 120V109.5H86.625V113.835H91.965V109.5H93.39V120H91.965V115.185H86.625V120H85.2ZM100.366 120.21C99.3658 120.21 98.4758 119.987 97.6958 119.542C96.9158 119.092 96.3033 118.46 95.8583 117.645C95.4133 116.825 95.1908 115.86 95.1908 114.75C95.1908 113.64 95.4133 112.677 95.8583 111.862C96.3033 111.042 96.9158 110.41 97.6958 109.965C98.4758 109.515 99.3658 109.29 100.366 109.29C101.366 109.29 102.256 109.515 103.036 109.965C103.816 110.41 104.428 111.042 104.873 111.862C105.318 112.677 105.541 113.64 105.541 114.75C105.541 115.86 105.318 116.825 104.873 117.645C104.428 118.46 103.816 119.092 103.036 119.542C102.256 119.987 101.366 120.21 100.366 120.21ZM100.366 118.83C101.171 118.83 101.843 118.65 102.383 118.29C102.923 117.925 103.328 117.435 103.598 116.82C103.873 116.2 104.011 115.51 104.011 114.75C104.011 113.99 103.873 113.302 103.598 112.687C103.328 112.067 102.923 111.577 102.383 111.217C101.843 110.852 101.171 110.67 100.366 110.67C99.5608 110.67 98.8883 110.852 98.3483 111.217C97.8083 111.577 97.4008 112.067 97.1258 112.687C96.8558 113.302 96.7208 113.99 96.7208 114.75C96.7208 115.51 96.8558 116.2 97.1258 116.82C97.4008 117.435 97.8083 117.925 98.3483 118.29C98.8883 118.65 99.5608 118.83 100.366 118.83ZM109.053 120V110.79H105.993V109.5H113.538V110.79H110.478V120H109.053ZM114.966 120V109.5H121.371V110.79H116.391V113.865H120.351V115.155H116.391V118.71H121.506V120H114.966ZM123.271 120V109.5H124.696V118.71H129.511V120H123.271Z" fill="white"/>
<path d="M55.9978 222.829L48.5246 214.547L38.7734 219.681L42.8262 197.438L60.0574 200.586L55.9978 222.829Z" fill="#12A3A5"/>
<path opacity="0.3" d="M55.9978 222.829L48.5246 214.547L38.7734 219.681L42.8262 197.438L60.0574 200.586L55.9978 222.829Z" fill="white"/>
<path d="M56.6984 170.381L58.5616 172.394L61.2476 171.822L62.5532 174.236L65.2936 174.345L65.96 177.011L68.5916 177.8L68.5712 180.54L70.924 181.961L70.2236 184.62L72.148 186.578L70.8084 188.972L72.1888 191.345L70.2984 193.338L71.0396 195.976L68.714 197.438L68.7684 200.178L66.1572 201.015L65.5316 203.687L62.7912 203.837L61.5264 206.271L58.8336 205.741L56.9976 207.788L54.5224 206.604L52.2376 208.121L50.1296 206.36L47.5388 207.264L45.9408 205.034L43.2072 205.272L42.2144 202.715L39.508 202.259L39.1816 199.532L36.6724 198.417L37.0328 195.697L34.8772 193.997L35.904 191.447L34.238 189.264L35.87 187.054L34.8024 184.525L36.924 182.791L36.5228 180.078L39.0116 178.922L39.2972 176.195L41.9968 175.692L42.9488 173.121L45.6892 173.312L47.2532 171.054L49.8576 171.918L51.9316 170.122L54.2368 171.605L56.6984 170.381Z" fill="#12A3A5"/>
<path opacity="0.2" d="M56.6984 170.381L58.5616 172.394L61.2476 171.822L62.5532 174.236L65.2936 174.345L65.96 177.011L68.5916 177.8L68.5712 180.54L70.924 181.961L70.2236 184.62L72.148 186.578L70.8084 188.972L72.1888 191.345L70.2984 193.338L71.0396 195.976L68.714 197.438L68.7684 200.178L66.1572 201.015L65.5316 203.687L62.7912 203.837L61.5264 206.271L58.8336 205.741L56.9976 207.788L54.5224 206.604L52.2376 208.121L50.1296 206.36L47.5388 207.264L45.9408 205.034L43.2072 205.272L42.2144 202.715L39.508 202.259L39.1816 199.532L36.6724 198.417L37.0328 195.697L34.8772 193.997L35.904 191.447L34.238 189.264L35.87 187.054L34.8024 184.525L36.924 182.791L36.5228 180.078L39.0116 178.922L39.2972 176.195L41.9968 175.692L42.9488 173.121L45.6892 173.312L47.2532 171.054L49.8576 171.918L51.9316 170.122L54.2368 171.605L56.6984 170.381Z" fill="black"/>
<path d="M68.6236 194.015C71.3798 185.532 66.7375 176.421 58.2546 173.665C49.7718 170.909 40.6607 175.551 37.9044 184.034C35.1482 192.517 39.7905 201.628 48.2734 204.384C56.7562 207.14 65.8673 202.498 68.6236 194.015Z" fill="#12A3A5"/>
<path d="M42.2327 194.143L44.7092 190.041L42.3679 189.614L43.589 187.824L45.8123 188.229L46.9762 186.307L44.5562 185.866L45.5 184.147L47.9987 184.603L50.1367 181.13L51.8977 181.452L49.7793 184.928L52.16 185.362L54.2784 181.886L56.0295 182.205L53.9111 185.682L56.1147 186.084L55.1414 187.797L52.8886 187.386L51.7247 189.308L54.2038 189.76L52.9532 191.545L50.6216 191.12L48.1451 195.222L46.3645 194.897L48.841 190.795L46.4899 190.366L43.9838 194.462L42.2327 194.143ZM47.5732 188.551L49.9441 188.983L51.1277 187.065L48.7568 186.632L47.5732 188.551ZM57.8158 196.763L59.7363 186.236C59.3576 186.418 59.0081 186.551 58.6878 186.635C58.3741 186.72 58.0566 186.77 57.7352 186.786L57.8419 184.752C58.1645 184.73 58.5233 184.639 58.9181 184.481C59.3195 184.324 59.698 184.125 60.0535 183.885C60.409 183.645 60.6909 183.381 60.8992 183.094L62.5913 183.403L60.0784 197.175L57.8158 196.763Z" fill="white"/>
<path d="M162.493 242.76H50.5375C49.4258 242.76 48.5247 243.661 48.5247 244.773V268.002C48.5247 269.113 49.4258 270.014 50.5375 270.014H162.493C163.604 270.014 164.505 269.113 164.505 268.002V244.773C164.505 243.661 163.604 242.76 162.493 242.76Z" fill="#12A3A5"/>
<path d="M68.5848 257.829L69.5844 263.656L64.3552 260.902L59.126 263.656L60.1256 257.829L55.896 253.708L61.744 252.858L64.3552 247.561L66.9732 252.858L72.8212 253.708L68.5848 257.829Z" fill="white"/>
<path opacity="0.2" d="M68.5848 257.829L69.5844 263.656L64.3552 260.902L59.126 263.656L64.3552 257.496L68.6256 262.364L65.45 256.387L71.6856 254.096L65.4092 254.776L64.3552 247.561L66.9732 252.858L72.8212 253.708L68.5848 257.829Z" fill="black"/>
<path d="M89.6646 257.829L90.6642 263.656L85.435 260.902L80.2058 263.656L81.2054 257.829L76.9758 253.708L82.8238 252.858L85.435 247.561L88.053 252.858L93.901 253.708L89.6646 257.829Z" fill="white"/>
<path opacity="0.2" d="M89.6649 257.829L90.6645 263.656L85.4353 260.902L80.2061 263.656L85.4353 257.496L89.7057 262.364L86.5301 256.387L92.7657 254.096L86.4893 254.776L85.4353 247.561L88.0533 252.858L93.9013 253.708L89.6649 257.829Z" fill="black"/>
<path d="M110.745 257.829L111.744 263.656L106.515 260.902L101.286 263.656L102.286 257.829L98.0559 253.708L103.904 252.858L106.515 247.561L109.133 252.858L114.981 253.708L110.745 257.829Z" fill="white"/>
<path opacity="0.2" d="M110.745 257.829L111.744 263.656L106.515 260.902L101.286 263.656L106.515 257.496L110.785 262.364L107.61 256.387L113.845 254.096L107.569 254.776L106.515 247.561L109.133 252.858L114.981 253.708L110.745 257.829Z" fill="black"/>
<path d="M131.825 257.829L132.824 263.656L127.595 260.902L122.366 263.656L123.366 257.829L119.136 253.708L124.984 252.858L127.595 247.561L130.213 252.858L136.061 253.708L131.825 257.829Z" fill="white"/>
<path opacity="0.2" d="M131.825 257.829L132.824 263.656L127.595 260.902L122.366 263.656L127.595 257.496L131.866 262.364L128.69 256.387L134.926 254.096L128.649 254.776L127.595 247.561L130.213 252.858L136.061 253.708L131.825 257.829Z" fill="black"/>
<path d="M152.905 257.829L153.904 263.656L148.675 260.902L143.446 263.656L144.446 257.829L140.216 253.708L146.064 252.858L148.675 247.561L151.293 252.858L157.141 253.708L152.905 257.829Z" fill="white"/>
<path opacity="0.2" d="M152.905 257.829L153.904 263.656L148.675 260.902L143.446 263.656L148.675 257.496L152.946 262.364L149.77 256.387L156.006 254.096L149.729 254.776L148.675 247.561L151.293 252.858L157.141 253.708L152.905 257.829Z" fill="black"/>
<path d="M264.071 187.578H255.51V219.368H264.071V187.578Z" stroke="#263238" stroke-width="3" stroke-miterlimit="10"/>
<path d="M257.271 278.12H255.911C255.19 278.12 254.498 278.407 253.988 278.917C253.478 279.427 253.191 280.119 253.191 280.84C253.191 281.561 253.478 282.253 253.988 282.763C254.498 283.273 255.19 283.56 255.911 283.56H257.271C257.993 283.56 258.684 283.273 259.194 282.763C259.705 282.253 259.991 281.561 259.991 280.84C259.991 280.119 259.705 279.427 259.194 278.917C258.684 278.407 257.993 278.12 257.271 278.12Z" fill="#263238"/>
<path opacity="0.1" d="M260.039 280.792C260.037 281.339 259.874 281.874 259.569 282.328C259.264 282.782 258.831 283.136 258.326 283.344C257.82 283.553 257.263 283.607 256.727 283.499C256.191 283.392 255.698 283.128 255.312 282.74C254.925 282.353 254.662 281.86 254.556 281.323C254.45 280.786 254.505 280.23 254.715 279.725C254.925 279.22 255.279 278.788 255.734 278.484C256.189 278.18 256.724 278.018 257.271 278.018C257.635 278.018 257.996 278.09 258.332 278.229C258.668 278.369 258.973 278.573 259.231 278.831C259.488 279.089 259.691 279.395 259.83 279.731C259.969 280.068 260.04 280.428 260.039 280.792Z" fill="white"/>
<path d="M264.751 278.12H263.391C262.67 278.12 261.978 278.407 261.468 278.917C260.958 279.427 260.671 280.119 260.671 280.84C260.671 281.561 260.958 282.253 261.468 282.763C261.978 283.273 262.67 283.56 263.391 283.56H264.751C265.473 283.56 266.164 283.273 266.674 282.763C267.185 282.253 267.471 281.561 267.471 280.84C267.471 280.119 267.185 279.427 266.674 278.917C266.164 278.407 265.473 278.12 264.751 278.12Z" fill="#263238"/>
<path opacity="0.2" d="M267.519 280.792C267.517 281.339 267.354 281.874 267.049 282.328C266.744 282.782 266.311 283.136 265.806 283.344C265.3 283.553 264.743 283.607 264.207 283.499C263.671 283.392 263.178 283.128 262.792 282.74C262.405 282.353 262.142 281.86 262.036 281.323C261.93 280.786 261.985 280.23 262.195 279.725C262.405 279.22 262.759 278.788 263.214 278.484C263.669 278.18 264.204 278.018 264.751 278.018C265.115 278.018 265.476 278.09 265.812 278.229C266.148 278.369 266.453 278.573 266.711 278.831C266.968 279.089 267.171 279.395 267.31 279.731C267.449 280.068 267.52 280.428 267.519 280.792Z" fill="white"/>
<path d="M289.68 220.898V269.008C289.68 273.768 285.797 278.12 281.01 278.12H257.04V212.16H281.01C283.318 212.171 285.527 213.097 287.153 214.735C288.778 216.374 289.687 218.59 289.68 220.898Z" fill="#12A3A5"/>
<path d="M265.934 210.929H255.32C254.309 210.929 253.49 211.748 253.49 212.758V277.202C253.49 278.212 254.309 279.031 255.32 279.031H265.934C266.945 279.031 267.764 278.212 267.764 277.202V212.758C267.764 211.748 266.945 210.929 265.934 210.929Z" fill="#263238"/>
<path opacity="0.2" d="M260.651 210.929H255.32C254.309 210.929 253.49 211.748 253.49 212.758V277.202C253.49 278.212 254.309 279.031 255.32 279.031H260.651C261.661 279.031 262.48 278.212 262.48 277.202V212.758C262.48 211.748 261.661 210.929 260.651 210.929Z" fill="white"/>
<path opacity="0.2" d="M289.68 220.898V269.008C289.68 273.768 285.797 278.12 281.01 278.12H271.381C270.949 277.274 270.696 276.348 270.64 275.4V221.68C270.683 220.39 271.23 219.168 272.165 218.278C273.1 217.387 274.347 216.9 275.638 216.92H288.68C289.321 218.149 289.663 219.512 289.68 220.898Z" fill="black"/>
<path opacity="0.2" d="M259.359 212.738H255.775C255.073 212.738 254.504 213.307 254.504 214.01V276.032C254.504 276.735 255.073 277.304 255.775 277.304H259.359C260.061 277.304 260.63 276.735 260.63 276.032V214.01C260.63 213.307 260.061 212.738 259.359 212.738Z" fill="black"/>
<path d="M264.187 185.286H255.258C254.507 185.286 253.898 185.895 253.898 186.646V187.496C253.898 188.248 254.507 188.856 255.258 188.856H264.187C264.938 188.856 265.547 188.248 265.547 187.496V186.646C265.547 185.895 264.938 185.286 264.187 185.286Z" fill="#263238"/>
<path opacity="0.2" d="M264.187 185.286H255.258C254.507 185.286 253.898 185.895 253.898 186.646V187.496C253.898 188.248 254.507 188.856 255.258 188.856H264.187C264.938 188.856 265.547 188.248 265.547 187.496V186.646C265.547 185.895 264.938 185.286 264.187 185.286Z" fill="white"/>
<path opacity="0.2" d="M264.18 185.286H263.418C262.667 185.286 262.058 185.895 262.058 186.646V187.496C262.058 188.248 262.667 188.856 263.418 188.856H264.18C264.931 188.856 265.54 188.248 265.54 187.496V186.646C265.54 185.895 264.931 185.286 264.18 185.286Z" fill="black"/>
<path d="M247.098 181.05L252.96 186.748C253.517 187.217 254.177 187.547 254.887 187.709C255.597 187.871 256.335 187.861 257.04 187.68C259.719 187.17 262.664 185.388 263.418 185.388C264.173 185.388 265.54 186.748 265.54 186.748C265.54 186.748 265.492 182.92 264.071 181.56C262.65 180.2 254.504 182.75 254.504 182.75L250.424 178.33L247.098 181.05Z" fill="#E4897B"/>
<path d="M229.276 268.083L225.991 270.014C224.451 267.942 222.784 265.966 221 264.098C220.048 263.092 219.048 261.977 218.008 260.78C215.927 258.393 213.676 255.666 211.317 252.736L209.202 250.09C200.981 239.748 192.093 227.589 188.802 219.368C187.768 216.811 187.265 214.642 187.49 213.017C188.17 208.107 190.074 200.716 192.25 193.576C195.568 182.662 199.301 172.319 199.301 172.319L208.474 187.857C208.474 187.857 205.659 194.568 203.096 201.715C200.573 208.733 198.295 216.179 199.138 218.117C199.22 218.307 199.322 218.532 199.437 218.797C200.96 221.952 205.176 229.099 209.964 236.994L211.426 239.394C213.996 243.61 216.668 247.942 219.144 251.92C220.109 253.484 221.048 254.993 221.938 256.421C226.127 263.16 229.276 268.083 229.276 268.083Z" fill="#E4897B"/>
<path opacity="0.2" d="M209.018 250.084C213.357 255.524 217.525 260.488 220.626 264.092C221.068 261.875 221.517 259.25 221.87 256.387C218.287 250.634 213.901 243.535 209.916 236.96C210.001 241.352 209.7 245.744 209.018 250.084Z" fill="black"/>
<path d="M225.386 205.122C224.25 212.867 222.632 219.885 221.578 224.067C220.946 226.576 220.517 228.058 220.517 228.058C220.502 236.012 220.034 243.958 219.116 251.858C218.77 254.973 218.396 257.978 218.008 260.746C216.58 271.041 215.077 278.426 215.077 278.426L211.167 277.916L211.317 252.695L211.398 239.326L211.507 221.136L211.548 217.967L211.738 204.136L212.017 183.736L225.617 177.616C227.44 185.402 226.76 195.792 225.386 205.122Z" fill="#E4897B"/>
<path opacity="0.2" d="M199.274 172.312L208.447 187.85C208.447 187.85 205.632 194.562 203.068 201.708C200.546 208.726 198.268 216.172 199.111 218.11C199.192 218.3 199.294 218.525 199.41 218.79C196.01 219.946 192.005 219.824 188.768 219.388C187.734 216.832 187.231 214.662 187.456 213.037C188.136 208.128 190.04 200.736 192.216 193.596C195.541 182.655 199.274 172.312 199.274 172.312Z" fill="black"/>
<path opacity="0.2" d="M225.386 205.122C224.25 212.867 222.632 219.885 221.578 224.067C217.11 222.639 214.098 219.987 211.548 218.001L211.738 204.17L212.017 183.77L225.617 177.65C227.44 185.402 226.76 195.792 225.386 205.122Z" fill="black"/>
<path d="M201.96 121.264C199.383 121.38 189.04 136.34 189.04 136.34L185.028 131.124C185.028 131.124 178.84 143.147 181.9 148.866C184.96 154.584 201.09 138.944 201.09 138.944L201.96 121.264Z" fill="#12A3A5"/>
<path opacity="0.6" d="M201.96 121.264L201.362 133.28L201.09 138.938C201.09 138.938 198.438 141.508 195.085 144.18C190.162 148.111 183.722 152.259 181.9 148.859C178.84 143.14 185.028 131.118 185.028 131.118L189.04 136.333V136.292C189.679 135.422 199.437 121.373 201.96 121.264Z" fill="white"/>
<path opacity="0.2" d="M201.362 133.28L201.09 138.938C201.09 138.938 198.438 141.508 195.085 144.18C194.766 137.38 201.09 127.493 201.09 127.493L201.362 133.28Z" fill="black"/>
<path opacity="0.2" d="M189.04 136.34L189.618 137.448L187.938 143.99C187.938 143.99 192.576 139.767 189.618 135.633L189.04 136.34Z" fill="black"/>
<path d="M210.548 119.17C211.908 117.844 219.878 117.953 222.367 119.34L220.606 126.14L209.127 126.82C209.127 126.82 208.223 121.407 210.548 119.17Z" fill="#12A3A5"/>
<path d="M228.976 265.941C228.575 265.649 225.189 270.701 225.189 270.701C225.189 270.701 225.944 275.985 224.414 279.398C222.884 282.812 225.855 282.52 228.324 279.283C230.792 276.046 232.676 273.591 234.444 271.293C236.212 268.994 233.131 268.96 228.976 265.941Z" fill="#263238"/>
<path d="M223.931 274.564C223.832 274.554 223.736 274.523 223.65 274.473C223.564 274.422 223.491 274.353 223.434 274.271C223.38 274.199 223.341 274.117 223.318 274.029C223.296 273.942 223.292 273.851 223.305 273.761C223.421 273.315 223.656 272.908 223.985 272.585C223.475 272.823 222.958 272.972 222.693 272.789C222.428 272.605 222.469 272.462 222.53 272.163C222.556 272.029 222.611 271.903 222.691 271.793C222.771 271.682 222.874 271.591 222.992 271.524C223.761 271.075 225.196 271.524 225.264 271.524C225.285 271.529 225.304 271.541 225.318 271.558C225.323 271.571 225.323 271.586 225.318 271.599C225.321 271.606 225.323 271.614 225.323 271.623C225.323 271.631 225.321 271.639 225.318 271.646C225.325 271.666 225.325 271.688 225.318 271.708C225.23 272.15 224.726 274.339 223.958 274.523L223.931 274.564ZM224.978 272.116C224.448 272.564 223.686 273.306 223.618 273.802C223.602 273.897 223.624 273.995 223.679 274.074C223.836 274.264 223.931 274.244 223.958 274.237C224.325 274.149 224.74 273.061 224.978 272.116ZM223.91 271.646C223.656 271.635 223.404 271.689 223.176 271.803C223.097 271.848 223.029 271.909 222.976 271.983C222.923 272.057 222.887 272.142 222.87 272.231C222.87 272.32 222.829 272.476 222.87 272.524C223.101 272.68 224.006 272.272 224.822 271.769C224.523 271.694 224.218 271.653 223.91 271.646Z" fill="#12A3A5"/>
<path d="M216.464 275.964C216.464 275.468 210.344 275.856 210.344 275.856C210.344 275.856 206.598 279.664 202.96 280.52C199.322 281.377 201.355 283.56 205.421 283.56H215.478C218.389 283.56 216.58 281.098 216.464 275.964Z" fill="#263238"/>
<path d="M207.162 277.44C206.972 277.453 206.783 277.403 206.625 277.297C206.532 277.214 206.468 277.103 206.441 276.981C206.414 276.859 206.426 276.732 206.475 276.617C206.5 276.531 206.542 276.451 206.598 276.381C206.654 276.311 206.723 276.252 206.802 276.209C207.233 276.036 207.703 275.984 208.162 276.06C207.665 275.794 207.23 275.475 207.21 275.155C207.21 274.944 207.339 274.774 207.611 274.645C207.734 274.588 207.869 274.559 208.005 274.559C208.141 274.559 208.276 274.588 208.4 274.645C209.222 274.992 209.76 276.4 209.76 276.474C209.763 276.495 209.763 276.515 209.76 276.536C209.763 276.554 209.763 276.572 209.76 276.59V276.631C209.749 276.65 209.732 276.664 209.712 276.672C208.913 277.074 208.05 277.334 207.162 277.44ZM207.679 276.379C207.433 276.365 207.188 276.412 206.965 276.515C206.922 276.536 206.884 276.565 206.854 276.602C206.823 276.638 206.801 276.68 206.788 276.726C206.727 276.964 206.788 277.025 206.829 277.046C207.114 277.284 208.23 276.95 209.127 276.57C208.653 276.447 208.168 276.374 207.679 276.352V276.379ZM208.039 274.89C207.942 274.893 207.847 274.916 207.76 274.958C207.672 274.999 207.536 275.08 207.543 275.162C207.543 275.434 208.427 275.91 209.324 276.25C209.127 275.714 208.762 275.256 208.284 274.944C208.209 274.901 208.125 274.873 208.039 274.863V274.89Z" fill="#12A3A5"/>
<path d="M201.96 157.998L199.58 169.204C199.58 169.204 188.53 186.966 183.94 208.25C183.94 208.25 183.77 213.86 189.38 213.01C194.99 212.16 197.492 218.11 203.041 218.11C208.59 218.11 214.166 214.03 218.94 218.11C223.713 222.19 232.73 218.11 232.73 218.11C232.73 218.11 232.39 176.045 223.72 159.678L201.96 157.998Z" fill="#12A3A5"/>
<path d="M201.96 157.998L223.72 159.678C223.72 159.678 224.019 146.676 225.76 139.91C226.324 137.72 227.032 135.259 227.929 132.43C228.31 131.22 228.725 129.941 229.18 128.574C229.636 127.208 230.051 125.95 230.54 124.528C227.564 123.579 224.523 122.845 221.442 122.332C218.188 121.754 214.898 121.406 211.596 121.292C207.332 121.258 202.429 121.74 202.429 121.74C202.429 121.74 201.749 121.91 201.294 126.426C200.892 130.648 201.076 142.555 201.96 157.998Z" fill="#263238"/>
<path d="M213.404 126.113C218.81 125.433 220.436 123.107 220.436 123.107C218.226 121.026 218.627 117.953 219.191 116.035C219.367 115.427 219.594 114.836 219.871 114.267L213.364 115.484C213.514 116.384 213.598 117.293 213.615 118.204C213.639 118.889 213.578 119.575 213.432 120.244C212.99 122.189 211.881 122.216 211.881 122.216C210.725 124.345 213.404 126.113 213.404 126.113Z" fill="#E4897B"/>
<path opacity="0.2" d="M213.602 118.225C213.626 118.91 213.564 119.595 213.418 120.265C216.002 119.925 217.96 117.858 219.191 116.062C219.366 115.455 219.594 114.863 219.871 114.294L213.364 115.512C213.509 116.409 213.588 117.316 213.602 118.225Z" fill="black"/>
<path d="M217.6 97.6684C217.6 97.6684 219.3 89.1684 228.058 90.8684C236.817 92.5684 232.73 104.516 230.948 108.27C229.167 112.023 228.908 115.07 231.03 116.79C231.03 116.79 228.14 117.62 226.61 115.634C226.61 115.634 226.698 117.47 227.718 118.232C227.718 118.232 218.912 115.09 221.15 104.808C223.387 94.5268 217.6 97.6684 217.6 97.6684Z" fill="#263238"/>
<path d="M208.243 96.9884C208.243 96.9884 203.83 97.1584 202.64 100.898C201.45 104.638 202.388 108.814 208.978 113.274C215.567 117.735 221.088 113.356 223.638 110.31C226.188 107.263 224.91 96.968 217.6 95.744C210.29 94.52 208.243 96.9884 208.243 96.9884Z" fill="#263238"/>
<path d="M212.466 98.1988C206.856 99.008 205.489 102.279 205.911 108.1C206.441 115.396 208.78 120.292 215.567 117.735C224.781 114.24 221.768 96.8524 212.466 98.1988Z" fill="#E4897B"/>
<path d="M209.488 107.263C209.161 108.166 208.727 109.027 208.196 109.827C208.394 110.034 208.645 110.183 208.922 110.258C209.199 110.332 209.491 110.329 209.766 110.248L209.488 107.263Z" fill="#DE5753"/>
<path d="M212.84 106.311C212.894 106.774 213.194 107.12 213.52 107.08C213.846 107.039 214.03 106.638 213.976 106.175C213.921 105.713 213.622 105.373 213.296 105.407C212.969 105.441 212.799 105.849 212.84 106.311Z" fill="#263238"/>
<path d="M213.438 105.4L212.391 105.128C212.391 105.128 212.99 105.924 213.438 105.4Z" fill="#263238"/>
<path d="M207.101 106.91C207.155 107.372 207.448 107.712 207.781 107.678C208.114 107.644 208.291 107.236 208.236 106.774C208.182 106.311 207.883 105.964 207.556 106.005C207.23 106.046 207.046 106.447 207.101 106.91Z" fill="#263238"/>
<path d="M207.686 106.012L206.632 105.74C206.632 105.74 207.237 106.522 207.686 106.012Z" fill="#263238"/>
<path d="M212.35 102.435C212.786 102.316 213.243 102.299 213.687 102.385C214.13 102.471 214.548 102.658 214.907 102.932" stroke="#263238" stroke-width="0.707962" stroke-linecap="round" stroke-linejoin="round"/>
<path d="M208.243 102.782C207.846 102.743 207.444 102.793 207.069 102.929C206.693 103.066 206.353 103.285 206.074 103.571" stroke="#263238" stroke-width="0.707962" stroke-linecap="round" stroke-linejoin="round"/>
<path d="M219.953 106.76C219.953 106.76 216.668 102.53 216.553 98.9196C216.553 98.9196 204.789 95.9888 205.87 107.338C205.87 107.338 203.34 97.4848 212.942 95.8732C222.544 94.2616 224.536 108.358 220.17 113.274C220.17 113.274 221.993 109.405 219.953 106.76Z" fill="#263238"/>
<path d="M219.205 108.072C219.167 107.416 219.391 106.771 219.826 106.278C220.262 105.786 220.874 105.485 221.53 105.441C223.292 105.38 224.638 108.841 220.442 110.31C219.837 110.52 219.402 109.97 219.205 108.072Z" fill="#E4897B"/>
<path d="M210.956 113.172C210.956 113.172 213.377 113.37 214.05 111.132" stroke="#263238" stroke-width="0.707962" stroke-linecap="round" stroke-linejoin="round"/>
<path d="M208.978 94.7512C208.978 94.7512 205.387 93.33 205.544 96.56C205.7 99.79 219.3 107.773 226.188 107.263C226.188 107.263 224.318 106.78 223.72 105.964C224.593 104.246 224.82 102.27 224.36 100.398C223.899 98.5262 222.782 96.8818 221.211 95.7644C214.05 90.1 208.978 94.7512 208.978 94.7512Z" fill="#263238"/>
<path d="M206.632 97.2808C206.632 97.2808 207.189 104.033 216.6 107.263" stroke="#263238" stroke-width="0.488465" stroke-linecap="round" stroke-linejoin="round"/>
<path d="M198.492 131.294C198.502 131.374 198.494 131.454 198.47 131.53C198.446 131.607 198.406 131.677 198.353 131.736C198.299 131.795 198.233 131.842 198.16 131.874C198.087 131.906 198.007 131.922 197.928 131.92H191.712C191.543 131.913 191.382 131.847 191.258 131.732C191.133 131.617 191.053 131.462 191.032 131.294L189.672 119.054C189.659 118.89 189.711 118.727 189.816 118.599C189.922 118.472 190.073 118.392 190.237 118.374H196.452C196.624 118.399 196.783 118.479 196.905 118.601C197.028 118.724 197.107 118.883 197.132 119.054L198.492 131.294Z" fill="#263238"/>
<path opacity="0.5" d="M196.411 118.946L197.819 131.335C197.837 131.407 197.838 131.483 197.822 131.556C197.806 131.628 197.772 131.696 197.724 131.753C197.676 131.81 197.616 131.855 197.547 131.884C197.478 131.913 197.404 131.926 197.329 131.92H192.059C191.706 131.92 191.06 131.723 191.019 131.376L189.611 118.946C189.57 118.599 190.176 118.32 190.529 118.32H195.799C195.962 118.327 196.115 118.395 196.229 118.512C196.343 118.628 196.408 118.783 196.411 118.946Z" fill="white"/>
<path d="M222.36 119.34L217.6 121.836L218.96 125.12C218.96 125.12 217.015 139.06 218.96 153.34L231.445 152.544C231.445 152.544 232.954 130.227 230.561 124.501L223.244 121.944L222.36 119.34Z" fill="#12A3A5"/>
<path opacity="0.6" d="M231.88 139.033C231.88 145.962 231.411 152.544 231.411 152.544L224.108 153.007L218.926 153.34C216.988 139.06 218.926 125.12 218.926 125.12L217.566 121.836L222.326 119.34L223.183 121.944L230.52 124.501C231.635 127.119 231.914 133.198 231.88 139.033Z" fill="white"/>
<path d="M210.548 119.17L210.12 121.72L208.937 123.617C208.937 123.617 202.64 138.496 203.66 152.096L197.826 151.3C197.826 151.3 197.866 127.718 201.906 121.264L208.95 120.958L210.548 119.17Z" fill="#12A3A5"/>
<path opacity="0.6" d="M210.548 119.17L210.12 121.72L208.937 123.617C208.937 123.617 202.64 138.496 203.66 152.096L197.826 151.3C197.826 151.3 197.866 127.718 201.906 121.264L208.95 120.958L210.548 119.17Z" fill="white"/>
<path opacity="0.6" d="M210.548 160.779C210.548 160.997 210.484 161.21 210.363 161.391C210.242 161.572 210.07 161.714 209.868 161.797C209.667 161.88 209.446 161.902 209.232 161.86C209.018 161.817 208.822 161.712 208.668 161.558C208.514 161.404 208.409 161.208 208.366 160.994C208.324 160.78 208.346 160.559 208.429 160.358C208.512 160.156 208.654 159.984 208.835 159.863C209.016 159.742 209.229 159.678 209.447 159.678C209.738 159.679 210.018 159.796 210.224 160.002C210.43 160.208 210.547 160.488 210.548 160.779Z" fill="white"/>
<path d="M185.47 132.314L188.707 126.82C188.707 126.82 188.707 123.93 188.986 123.25C189.264 122.57 192.44 121.033 193.066 121.264C193.691 121.496 193.916 127.16 193.344 127.928C192.773 128.697 190.794 129.54 190.794 129.54L190.93 130.614L189.04 136.34L185.47 132.314Z" fill="#E4897B"/>
<path d="M184.164 131.696L185.246 130.614L190.346 136.34L189.618 138.604L184.164 131.696Z" fill="#12A3A5"/>
<path opacity="0.2" d="M231.88 139.033C231.88 145.962 231.411 152.544 231.411 152.544L224.108 153.007C222.822 142.854 226.705 131.927 226.705 131.927L231.88 139.033Z" fill="black"/>
<path d="M230.52 124.501C230.52 124.501 232.764 129.016 233.444 131.832C234.124 134.647 235.715 153.061 236.395 155.632C237.075 158.202 253.395 180.792 253.395 180.792L248.404 184.742C248.404 184.742 232.084 165.981 229.255 161.303C226.426 156.624 226.59 139.924 226.168 135.014C225.746 130.104 230.52 124.501 230.52 124.501Z" fill="#12A3A5"/>
<path opacity="0.6" d="M230.52 124.501C230.52 124.501 232.764 129.016 233.444 131.832C234.124 134.647 235.715 153.061 236.395 155.632C237.075 158.202 253.395 180.792 253.395 180.792L248.404 184.742C248.404 184.742 232.084 165.981 229.255 161.303C226.426 156.624 226.59 139.924 226.168 135.014C225.746 130.104 230.52 124.501 230.52 124.501Z" fill="white"/>
<path d="M247.098 184.708L253.49 179.18L254.504 180.968L249.22 186.49L247.098 184.708Z" fill="#12A3A5"/>
</svg>