   
 <svg width="340" height="340" viewBox="0 0 340 340" fill="none" xmlns="http://www.w3.org/2000/svg">
<path d="M219.028 283.812C239.612 284.213 273.054 283.812 291.706 275.114C310.359 266.417 326.189 250.512 332.064 230.778C337.94 211.045 332.561 187.673 316.737 174.495C298.377 159.222 271.952 160.215 248.152 161.874C224.352 163.533 197.832 164.315 179.724 148.777C165.981 136.986 160.473 118.544 152.089 102.49C142.344 83.8372 127.432 67.2044 108.038 59.0376C88.6448 50.8708 64.5184 52.462 48.484 66.096C48.484 66.096 9.24119 92.1672 26.6016 149.736C39.8684 193.691 64.0628 280.758 219.028 283.812Z" fill="#F5F5F5"/>
<path d="M329.358 271.32C329.358 271.422 257.876 271.497 169.721 271.497C81.566 271.497 10.0708 271.422 10.0708 271.32C10.0708 271.218 81.532 271.143 169.721 271.143C257.91 271.143 329.358 271.225 329.358 271.32Z" fill="#263238"/>
<path d="M296.664 172.618H258.985V271.238H296.664V172.618Z" fill="#455A64"/>
<path d="M296.657 172.618H277.821V271.238H296.657V172.618Z" fill="#263238"/>
<path d="M276.597 160.895H263.289V172.618H276.597V160.895Z" fill="#455A64"/>
<path d="M276.59 160.895H273.421V172.618H276.59V160.895Z" fill="#263238"/>
<path d="M297.765 171.931H255.843V172.618H297.765V171.931Z" fill="#455A64"/>
<path d="M269.613 177.732H266.424V184.457H269.613V177.732Z" fill="#263238"/>
<path d="M277.821 187.095C277.821 187.163 273.605 187.224 268.403 187.224C263.201 187.224 258.985 187.163 258.985 187.095C258.985 187.027 263.201 186.966 268.403 186.966C273.605 186.966 277.821 187 277.821 187.095Z" fill="#263238"/>
<path d="M288.613 177.732H285.423V184.457H288.613V177.732Z" fill="#455A64"/>
<path d="M296.827 187.095C296.827 187.163 292.611 187.224 287.409 187.224C282.207 187.224 277.991 187.163 277.991 187.095C277.991 187.027 282.207 186.966 287.409 186.966C292.611 186.966 296.827 187 296.827 187.095Z" fill="#455A64"/>
<path d="M288.613 191.08H285.423V197.805H288.613V191.08Z" fill="#455A64"/>
<path d="M296.827 200.444C296.827 200.518 292.611 200.573 287.409 200.573C282.207 200.573 277.991 200.518 277.991 200.444C277.991 200.369 282.207 200.314 287.409 200.314C292.611 200.314 296.827 200.376 296.827 200.444Z" fill="#455A64"/>
<path d="M288.613 204.836H285.423V211.562H288.613V204.836Z" fill="#455A64"/>
<path d="M296.827 214.2C296.827 214.268 292.611 214.329 287.409 214.329C282.207 214.329 277.991 214.268 277.991 214.2C277.991 214.132 282.207 214.071 287.409 214.071C292.611 214.071 296.827 214.125 296.827 214.2Z" fill="#455A64"/>
<path d="M288.613 218.586H285.423V225.311H288.613V218.586Z" fill="#455A64"/>
<path d="M296.827 227.95C296.827 228.024 292.611 228.079 287.409 228.079C282.207 228.079 277.991 228.024 277.991 227.95C277.991 227.875 282.207 227.827 287.409 227.827C292.611 227.827 296.827 227.882 296.827 227.95Z" fill="#455A64"/>
<path d="M288.613 231.948H285.423V238.673H288.613V231.948Z" fill="#455A64"/>
<path d="M296.827 241.312C296.827 241.386 292.611 241.441 287.409 241.441C282.207 241.441 277.991 241.386 277.991 241.312C277.991 241.237 282.207 241.182 287.409 241.182C292.611 241.182 296.827 241.244 296.827 241.312Z" fill="#455A64"/>
<path d="M288.613 245.364H285.423V252.09H288.613V245.364Z" fill="#455A64"/>
<path d="M288.613 258.958H285.423V265.683H288.613V258.958Z" fill="#455A64"/>
<path d="M296.827 254.728C296.827 254.803 292.611 254.857 287.409 254.857C282.207 254.857 277.991 254.803 277.991 254.728C277.991 254.653 282.207 254.599 287.409 254.599C292.611 254.599 296.827 254.66 296.827 254.728Z" fill="#455A64"/>
<path d="M269.613 191.284H266.424V198.009H269.613V191.284Z" fill="#263238"/>
<path d="M277.821 200.648C277.821 200.716 273.605 200.777 268.403 200.777C263.201 200.777 258.985 200.716 258.985 200.648C258.985 200.58 263.201 200.518 268.403 200.518C273.605 200.518 277.821 200.6 277.821 200.648Z" fill="#263238"/>
<path d="M269.613 204.836H266.424V211.562H269.613V204.836Z" fill="#263238"/>
<path d="M277.821 214.2C277.821 214.275 273.605 214.329 268.403 214.329C263.201 214.329 258.985 214.275 258.985 214.2C258.985 214.125 263.201 214.078 268.403 214.078C273.605 214.078 277.821 214.132 277.821 214.2Z" fill="#263238"/>
<path d="M269.613 218.396H266.424V225.121H269.613V218.396Z" fill="#263238"/>
<path d="M277.821 227.759C277.821 227.827 273.605 227.888 268.403 227.888C263.201 227.888 258.985 227.827 258.985 227.759C258.985 227.691 263.201 227.63 268.403 227.63C273.605 227.63 277.821 227.684 277.821 227.759Z" fill="#263238"/>
<path d="M269.613 231.948H266.424V238.673H269.613V231.948Z" fill="#263238"/>
<path d="M277.821 241.312C277.821 241.386 273.605 241.441 268.403 241.441C263.201 241.441 258.985 241.386 258.985 241.312C258.985 241.237 263.201 241.182 268.403 241.182C273.605 241.182 277.821 241.244 277.821 241.312Z" fill="#263238"/>
<path d="M269.613 245.507H266.424V252.232H269.613V245.507Z" fill="#263238"/>
<path d="M277.821 254.871C277.821 254.939 273.605 255 268.403 255C263.201 255 258.985 254.939 258.985 254.871C258.985 254.803 263.201 254.742 268.403 254.742C273.605 254.742 277.821 254.796 277.821 254.871Z" fill="#263238"/>
<path d="M269.613 259.06H266.424V265.785H269.613V259.06Z" fill="#263238"/>
<path d="M202.314 137.374H151.905V271.279H202.314V137.374Z" fill="#455A64"/>
<path d="M202.32 137.374H182.974V271.279H202.32V137.374Z" fill="#263238"/>
<path d="M194.562 147.941H190.733V156.019H194.562V147.941Z" fill="#455A64"/>
<path d="M194.562 162.112H190.733V170.19H194.562V162.112Z" fill="#455A64"/>
<path d="M194.562 177.983H190.733V186.062H194.562V177.983Z" fill="#455A64"/>
<path d="M194.562 193.147H190.733V201.226H194.562V193.147Z" fill="#455A64"/>
<path d="M194.562 208.318H190.733V216.396H194.562V208.318Z" fill="#455A64"/>
<path d="M194.562 223.482H190.733V231.56H194.562V223.482Z" fill="#455A64"/>
<path d="M194.562 238.653H190.733V246.731H194.562V238.653Z" fill="#455A64"/>
<path d="M194.562 255.326H190.733V263.405H194.562V255.326Z" fill="#455A64"/>
<path d="M204.83 136.53H147.519V138.094H204.83V136.53Z" fill="#263238"/>
<path d="M192.651 127.106H172.244V137.312H192.651V127.106Z" fill="#263238"/>
<path d="M182.975 127.106H172.244V136.53H182.975V127.106Z" fill="#455A64"/>
<path d="M162.908 147.608H159.079V155.686H162.908V147.608Z" fill="#263238"/>
<path d="M173.108 147.608H169.279V155.686H173.108V147.608Z" fill="#263238"/>
<path d="M162.908 162.996H159.079V171.074H162.908V162.996Z" fill="#263238"/>
<path d="M173.108 162.996H169.279V171.074H173.108V162.996Z" fill="#263238"/>
<path d="M162.908 178.384H159.079V186.463H162.908V178.384Z" fill="#263238"/>
<path d="M173.108 178.384H169.279V186.463H173.108V178.384Z" fill="#263238"/>
<path d="M162.908 193.773H159.079V201.851H162.908V193.773Z" fill="#263238"/>
<path d="M173.108 193.773H169.279V201.851H173.108V193.773Z" fill="#263238"/>
<path d="M162.908 209.161H159.079V217.24H162.908V209.161Z" fill="#263238"/>
<path d="M173.108 209.161H169.279V217.24H173.108V209.161Z" fill="#263238"/>
<path d="M162.908 224.55H159.079V232.628H162.908V224.55Z" fill="#263238"/>
<path d="M173.108 224.55H169.279V232.628H173.108V224.55Z" fill="#263238"/>
<path d="M162.908 239.938H159.079V248.016H162.908V239.938Z" fill="#263238"/>
<path d="M173.108 239.938H169.279V248.016H173.108V239.938Z" fill="#263238"/>
<path d="M162.908 255.326H159.079V263.405H162.908V255.326Z" fill="#263238"/>
<path d="M173.108 255.326H169.279V263.405H173.108V255.326Z" fill="#263238"/>
<path d="M182.974 158.855C182.974 158.991 176.018 159.1 167.443 159.1C158.868 159.1 151.905 158.991 151.905 158.855C151.905 158.719 158.862 158.617 167.443 158.617C176.025 158.617 182.974 158.726 182.974 158.855Z" fill="#263238"/>
<path d="M182.974 174.298C182.974 174.434 176.018 174.542 167.443 174.542C158.868 174.542 151.905 174.434 151.905 174.298C151.905 174.162 158.862 174.06 167.443 174.06C176.025 174.06 182.974 174.168 182.974 174.298Z" fill="#263238"/>
<path d="M182.974 189.931C182.974 190.06 176.018 190.169 167.443 190.169C158.868 190.169 151.905 190.06 151.905 189.931C151.905 189.802 158.862 189.686 167.443 189.686C176.025 189.686 182.974 189.795 182.974 189.931Z" fill="#263238"/>
<path d="M182.974 205.448C182.974 205.578 176.018 205.686 167.443 205.686C158.868 205.686 151.905 205.578 151.905 205.448C151.905 205.319 158.862 205.204 167.443 205.204C176.025 205.204 182.974 205.312 182.974 205.448Z" fill="#263238"/>
<path d="M182.974 220.742C182.974 220.871 176.018 220.98 167.443 220.98C158.868 220.98 151.905 220.871 151.905 220.742C151.905 220.612 158.862 220.497 167.443 220.497C176.025 220.497 182.974 220.606 182.974 220.742Z" fill="#263238"/>
<path d="M182.974 235.62C182.974 235.749 176.018 235.858 167.443 235.858C158.868 235.858 151.905 235.749 151.905 235.62C151.905 235.491 158.862 235.375 167.443 235.375C176.025 235.375 182.974 235.484 182.974 235.62Z" fill="#263238"/>
<path d="M182.974 252.11C182.974 252.239 176.018 252.348 167.443 252.348C158.868 252.348 151.905 252.239 151.905 252.11C151.905 251.981 158.862 251.865 167.443 251.865C176.025 251.865 182.974 251.974 182.974 252.11Z" fill="#263238"/>
<path d="M202.096 158.855C202.096 158.991 197.955 159.1 192.848 159.1C187.741 159.1 183.6 158.991 183.6 158.855C183.6 158.719 187.735 158.617 192.848 158.617C197.962 158.617 202.096 158.726 202.096 158.855Z" fill="#455A64"/>
<path d="M202.096 174.298C202.096 174.434 197.955 174.542 192.848 174.542C187.741 174.542 183.6 174.434 183.6 174.298C183.6 174.162 187.735 174.06 192.848 174.06C197.962 174.06 202.096 174.168 202.096 174.298Z" fill="#455A64"/>
<path d="M202.096 189.72C202.096 189.856 197.955 189.965 192.848 189.965C187.741 189.965 183.6 189.876 183.6 189.72C183.6 189.564 187.735 189.482 192.848 189.482C197.962 189.482 202.096 189.611 202.096 189.72Z" fill="#455A64"/>
<path d="M201.892 205.448C201.892 205.578 197.751 205.686 192.644 205.686C187.537 205.686 183.396 205.578 183.396 205.448C183.396 205.319 187.537 205.204 192.644 205.204C197.751 205.204 201.892 205.312 201.892 205.448Z" fill="#455A64"/>
<path d="M201.892 220.742C201.892 220.871 197.751 220.98 192.644 220.98C187.537 220.98 183.396 220.871 183.396 220.742C183.396 220.612 187.537 220.497 192.644 220.497C197.751 220.497 201.892 220.606 201.892 220.742Z" fill="#455A64"/>
<path d="M201.892 236.035C201.892 236.164 197.751 236.273 192.644 236.273C187.537 236.273 183.396 236.164 183.396 236.035C183.396 235.906 187.537 235.79 192.644 235.79C197.751 235.79 201.892 235.899 201.892 236.035Z" fill="#455A64"/>
<path d="M201.892 252.11C201.892 252.239 197.751 252.348 192.644 252.348C187.537 252.348 183.396 252.239 183.396 252.11C183.396 251.981 187.537 251.865 192.644 251.865C197.751 251.865 201.892 251.974 201.892 252.11Z" fill="#455A64"/>
<path d="M255.394 137.428H204.986V271.334H255.394V137.428Z" fill="#12A3A5"/>
<path d="M255.401 137.428H236.055V271.334H255.401V137.428Z" fill="#074041"/>
<path d="M247.643 147.995H243.814V156.074H247.643V147.995Z" fill="#12A3A5"/>
<path d="M247.643 162.166H243.814V170.245H247.643V162.166Z" fill="#12A3A5"/>
<path d="M247.643 178.038H243.814V186.116H247.643V178.038Z" fill="#12A3A5"/>
<path d="M247.643 193.202H243.814V201.28H247.643V193.202Z" fill="#12A3A5"/>
<path d="M247.643 208.372H243.814V216.451H247.643V208.372Z" fill="#12A3A5"/>
<path d="M247.643 223.536H243.814V231.615H247.643V223.536Z" fill="#12A3A5"/>
<path d="M247.643 238.707H243.814V246.786H247.643V238.707Z" fill="#12A3A5"/>
<path d="M247.643 255.381H243.814V263.459H247.643V255.381Z" fill="#12A3A5"/>
<path d="M257.91 136.585H200.6V138.149H257.91V136.585Z" fill="#074041"/>
<path d="M245.732 127.16H225.325V137.367H245.732V127.16Z" fill="#074041"/>
<path d="M236.055 127.16H225.325V136.585H236.055V127.16Z" fill="#12A3A5"/>
<path d="M215.989 147.662H212.16V155.74H215.989V147.662Z" fill="#074041"/>
<path d="M226.189 147.662H222.36V155.74H226.189V147.662Z" fill="#074041"/>
<path d="M215.989 163.05H212.16V171.129H215.989V163.05Z" fill="#074041"/>
<path d="M226.189 163.05H222.36V171.129H226.189V163.05Z" fill="#074041"/>
<path d="M215.989 178.439H212.16V186.517H215.989V178.439Z" fill="#074041"/>
<path d="M226.189 178.439H222.36V186.517H226.189V178.439Z" fill="#074041"/>
<path d="M215.989 193.827H212.16V201.906H215.989V193.827Z" fill="#074041"/>
<path d="M226.189 193.827H222.36V201.906H226.189V193.827Z" fill="#074041"/>
<path d="M215.989 209.216H212.16V217.294H215.989V209.216Z" fill="#074041"/>
<path d="M226.189 209.216H222.36V217.294H226.189V209.216Z" fill="#074041"/>
<path d="M215.989 224.604H212.16V232.682H215.989V224.604Z" fill="#074041"/>
<path d="M226.189 224.604H222.36V232.682H226.189V224.604Z" fill="#074041"/>
<path d="M215.989 239.992H212.16V248.071H215.989V239.992Z" fill="#074041"/>
<path d="M226.189 239.992H222.36V248.071H226.189V239.992Z" fill="#074041"/>
<path d="M215.989 255.381H212.16V263.459H215.989V255.381Z" fill="#074041"/>
<path d="M226.189 255.381H222.36V263.459H226.189V255.381Z" fill="#074041"/>
<path d="M236.055 158.909C236.055 159.045 229.099 159.154 220.524 159.154C211.949 159.154 204.986 159.045 204.986 158.909C204.986 158.773 211.942 158.671 220.524 158.671C229.106 158.671 236.055 158.78 236.055 158.909Z" fill="#074041"/>
<path d="M236.055 174.352C236.055 174.488 229.099 174.597 220.524 174.597C211.949 174.597 204.986 174.488 204.986 174.352C204.986 174.216 211.942 174.114 220.524 174.114C229.106 174.114 236.055 174.223 236.055 174.352Z" fill="#074041"/>
<path d="M236.055 189.985C236.055 190.114 229.099 190.223 220.524 190.223C211.949 190.223 204.986 190.114 204.986 189.985C204.986 189.856 211.942 189.74 220.524 189.74C229.106 189.74 236.055 189.849 236.055 189.985Z" fill="#074041"/>
<path d="M236.055 205.503C236.055 205.632 229.099 205.741 220.524 205.741C211.949 205.741 204.986 205.632 204.986 205.503C204.986 205.374 211.942 205.258 220.524 205.258C229.106 205.258 236.055 205.367 236.055 205.503Z" fill="#074041"/>
<path d="M236.055 220.796C236.055 220.925 229.099 221.034 220.524 221.034C211.949 221.034 204.986 220.925 204.986 220.796C204.986 220.667 211.942 220.551 220.524 220.551C229.106 220.551 236.055 220.66 236.055 220.796Z" fill="#074041"/>
<path d="M236.055 235.674C236.055 235.804 229.099 235.912 220.524 235.912C211.949 235.912 204.986 235.804 204.986 235.674C204.986 235.545 211.942 235.43 220.524 235.43C229.106 235.43 236.055 235.538 236.055 235.674Z" fill="#074041"/>
<path d="M236.055 252.164C236.055 252.294 229.099 252.402 220.524 252.402C211.949 252.402 204.986 252.294 204.986 252.164C204.986 252.035 211.942 251.92 220.524 251.92C229.106 251.92 236.055 252.028 236.055 252.164Z" fill="#074041"/>
<path d="M255.177 158.909C255.177 159.045 251.036 159.154 245.929 159.154C240.822 159.154 236.681 159.045 236.681 158.909C236.681 158.773 240.815 158.671 245.929 158.671C251.043 158.671 255.177 158.78 255.177 158.909Z" fill="#12A3A5"/>
<path d="M255.177 174.352C255.177 174.488 251.036 174.597 245.929 174.597C240.822 174.597 236.681 174.488 236.681 174.352C236.681 174.216 240.815 174.114 245.929 174.114C251.043 174.114 255.177 174.223 255.177 174.352Z" fill="#12A3A5"/>
<path d="M255.177 189.774C255.177 189.91 251.036 190.019 245.929 190.019C240.822 190.019 236.681 189.931 236.681 189.774C236.681 189.618 240.815 189.536 245.929 189.536C251.043 189.536 255.177 189.666 255.177 189.774Z" fill="#12A3A5"/>
<path d="M254.973 205.503C254.973 205.632 250.832 205.741 245.725 205.741C240.618 205.741 236.477 205.632 236.477 205.503C236.477 205.374 240.618 205.258 245.725 205.258C250.832 205.258 254.973 205.367 254.973 205.503Z" fill="#12A3A5"/>
<path d="M254.973 220.796C254.973 220.925 250.832 221.034 245.725 221.034C240.618 221.034 236.477 220.925 236.477 220.796C236.477 220.667 240.618 220.551 245.725 220.551C250.832 220.551 254.973 220.66 254.973 220.796Z" fill="#12A3A5"/>
<path d="M254.973 236.089C254.973 236.218 250.832 236.327 245.725 236.327C240.618 236.327 236.477 236.218 236.477 236.089C236.477 235.96 240.618 235.844 245.725 235.844C250.832 235.844 254.973 235.953 254.973 236.089Z" fill="#12A3A5"/>
<path d="M254.973 252.164C254.973 252.294 250.832 252.402 245.725 252.402C240.618 252.402 236.477 252.294 236.477 252.164C236.477 252.035 240.618 251.92 245.725 251.92C250.832 251.92 254.973 252.028 254.973 252.164Z" fill="#12A3A5"/>
<path d="M134.13 194.031C134.13 194.031 123.583 234.151 109.405 241.686C100.062 246.65 91.8135 240.727 86.2851 231.343L66.2931 199.165C65.7835 197.331 65.9922 195.372 66.8765 193.687C67.7609 192.001 69.2545 190.717 71.0531 190.094L87.7199 184.28L104.326 213.88L125.576 188.04" fill="#EB996E"/>
<path d="M30.3551 196.826C30.7223 199.437 37.2979 218.634 37.2979 218.634C37.2979 218.634 67.1363 210.195 66.8235 208.712C66.5651 207.509 61.9003 188.387 55.6715 177.609C54.5038 175.531 52.8662 173.756 50.8897 172.424C48.9131 171.092 46.6524 170.241 44.2883 169.939C42.9691 169.789 40.0383 171.013 39.2291 171.414C32.8779 174.59 27.5127 176.657 30.3551 196.826Z" fill="#455A64"/>
<path d="M77.1392 168.64C88.5972 171.829 89.114 177.038 94.8532 186.225L103.89 202.681L88.8352 212.276L86.0744 218.464L84.5852 271.68L23.9224 271.381L34.8024 228.303L30.464 200.015C30.0628 195.554 28.7776 187.218 30.1512 182.913C34.4556 169.463 50.5104 168.028 60.384 165.988C62.424 165.566 64.3892 166.212 66.0484 166.716" fill="#12A3A5"/>
<path d="M85.9247 221.197C85.8776 220.746 85.8639 220.291 85.8839 219.837C85.8839 218.885 85.8839 217.62 85.9315 216.097V216.063C86.69 214.716 87.3513 213.316 87.9103 211.874C88.6077 210.164 88.7828 208.285 88.4135 206.475C87.9239 204.435 86.7951 202.722 86.0403 201.035C85.3549 199.524 84.8966 197.92 84.6803 196.275C84.538 195.177 84.5084 194.068 84.5919 192.964C84.5919 192.569 84.6667 192.284 84.7007 192.066C84.7074 191.96 84.7327 191.857 84.7755 191.76C84.7995 192.163 84.7995 192.567 84.7755 192.97C84.7476 194.063 84.8182 195.155 84.9863 196.234C85.2336 197.835 85.7076 199.392 86.3939 200.858C87.1419 202.518 88.2979 204.258 88.8147 206.366C89.2039 208.25 89.0167 210.207 88.2775 211.983C87.7053 213.434 87.0233 214.839 86.2375 216.186V216.118C86.1627 217.641 86.1083 218.906 86.0607 219.858C86.0554 220.307 86.0099 220.756 85.9247 221.197Z" fill="#263238"/>
<path d="M77.6151 166.77C77.6671 166.901 77.7014 167.038 77.7171 167.178C77.7905 167.576 77.8359 167.978 77.8531 168.382C77.9075 169.878 77.6576 171.37 77.1187 172.768C76.3199 174.855 74.9423 176.671 73.1475 178.004C70.8985 179.606 68.1418 180.331 65.3955 180.044C63.9841 179.899 62.6059 179.525 61.3155 178.935C60.1227 178.375 59.0276 177.626 58.0719 176.718C56.4736 175.171 55.2562 173.274 54.5155 171.176C54.0139 169.772 53.7274 168.301 53.6655 166.811C53.6398 166.408 53.6398 166.003 53.6655 165.6C53.661 165.461 53.6747 165.322 53.7063 165.186C53.7539 165.186 53.7063 165.764 53.8015 166.804C53.9225 168.267 54.2452 169.706 54.7603 171.081C55.5167 173.12 56.7311 174.958 58.3099 176.453C59.2395 177.329 60.3051 178.048 61.4651 178.582C62.7128 179.15 64.045 179.511 65.4091 179.649C68.0514 179.937 70.7084 179.258 72.8891 177.738C74.3553 176.664 75.5494 175.261 76.376 173.642C77.2026 172.023 77.6386 170.233 77.6491 168.416C77.6967 167.348 77.5675 166.777 77.6151 166.77Z" fill="#263238"/>
<path d="M101.143 197.71C100.578 198.133 99.9774 198.506 99.3479 198.825C98.2259 199.505 96.6619 200.376 94.9619 201.402C93.2619 202.429 91.7455 203.388 90.6439 204.082C90.0697 204.491 89.4598 204.849 88.8215 205.149C89.336 204.663 89.8962 204.228 90.4943 203.85C91.5551 203.096 93.0579 202.096 94.7647 201.062C96.4715 200.029 98.0559 199.172 99.2187 198.58C99.8286 198.225 100.473 197.933 101.143 197.71Z" fill="#263238"/>
<path d="M32.2183 198.417C32.2183 198.417 32.2591 198.54 32.3339 198.778L32.6196 199.838L33.6871 203.918C34.5915 207.454 35.8836 212.5 37.4544 218.613L37.2572 218.504L65.3139 209.739L65.9939 209.488L65.8647 209.712C64.5148 203.428 62.6685 197.262 60.3431 191.27C58.1671 185.776 55.6715 181.009 52.8631 177.575C51.6114 176.013 50.1113 174.666 48.4227 173.59C47.1549 172.769 45.7098 172.261 44.2068 172.108C43.9189 172.061 43.628 172.036 43.3363 172.033L42.5611 172.074C42.3231 172.074 42.1055 172.074 41.8811 172.122L41.3507 172.237L40.6163 172.387C40.5333 172.405 40.4493 172.419 40.3647 172.428C40.4407 172.391 40.5206 172.364 40.6027 172.346L41.3303 172.162L41.8675 172.026C42.0715 171.986 42.2959 171.986 42.5475 171.958L43.3295 171.904C43.6249 171.9 43.9202 171.916 44.2135 171.952C45.7455 172.084 47.2236 172.581 48.5247 173.4C50.2393 174.467 51.765 175.812 53.0399 177.378C55.9436 180.826 58.48 185.606 60.6764 191.114C63.0265 197.12 64.8912 203.306 66.2523 209.61V209.78L66.0891 209.834L65.4091 210.086C54.8896 213.425 45.1452 216.369 37.3047 218.783L37.1484 218.831L37.1075 218.674C35.5911 212.554 34.3468 207.488 33.4696 203.946C33.048 202.198 32.7215 200.824 32.4903 199.866L32.2455 198.798C32.2205 198.673 32.2113 198.545 32.2183 198.417Z" fill="#263238"/>
<path d="M65.0284 205.89C65.0284 205.999 58.582 207.869 50.5648 210.079C42.5476 212.289 36.04 213.989 36.04 213.887C36.04 213.785 42.4796 211.908 50.4968 209.698C58.514 207.488 64.9944 205.788 65.0284 205.89Z" fill="#263238"/>
<path d="M62.5599 118.844C60.7035 114.818 55.5967 112.921 51.2923 113.988C46.9879 115.056 43.5879 118.572 41.7723 122.604C39.9567 126.636 39.4739 131.172 39.4399 135.606C39.4399 137.952 39.5419 140.325 39.0659 142.623C38.5899 144.922 37.4611 147.193 35.4891 148.471C33.9387 149.478 32.0347 149.777 30.3687 150.579C28.7027 151.382 27.1727 153.088 27.5875 154.897C28.0771 157.053 30.7835 157.699 32.9799 157.923C33.0168 159.254 33.4291 160.546 34.1692 161.653C34.9092 162.759 35.947 163.633 37.1626 164.175C38.3783 164.716 39.7223 164.903 41.0397 164.714C42.357 164.525 43.594 163.967 44.6079 163.105C43.9279 165.825 46.3283 168.626 49.0891 168.953C51.8499 169.279 54.5291 167.552 56.0659 165.213C57.6027 162.874 58.0379 160.018 58.1535 157.236C58.2691 154.455 58.0719 151.64 58.3439 148.92" fill="#263238"/>
<path d="M93.8875 123.91C93.8875 123.91 95.9275 110.242 77.1187 109.99C56.0795 109.711 52.2851 127.67 55.8891 137.129L66.3475 126.766L93.8875 123.91Z" fill="#263238"/>
<path d="M77.384 168.64C77.5948 165.002 77.7512 162.037 77.7512 162.037C77.7512 162.037 88.5224 162.289 90.1068 152.952C91.6912 143.616 93.5068 121.87 93.5068 121.87C88.8018 118.827 83.2987 117.252 77.6964 117.344C72.0942 117.436 66.6457 119.191 62.0432 122.386L61.1592 122.998L54.3592 166.172C53.8742 169.199 54.6078 172.295 56.3995 174.782C58.1913 177.27 60.8953 178.946 63.92 179.445C65.527 179.71 67.1719 179.634 68.7474 179.221C70.3229 178.808 71.7937 178.068 73.064 177.048C74.3342 176.029 75.3755 174.753 76.1198 173.304C76.8642 171.856 77.2949 170.266 77.384 168.64Z" fill="#FFBE9D"/>
<path d="M89.6648 138.441C89.6288 138.67 89.5264 138.883 89.3704 139.054C89.2144 139.226 89.0115 139.347 88.787 139.404C88.5625 139.461 88.3262 139.451 88.1074 139.375C87.8886 139.299 87.6969 139.16 87.5562 138.976C87.4155 138.792 87.3318 138.571 87.3156 138.34C87.2995 138.109 87.3515 137.878 87.4652 137.676C87.5789 137.475 87.7494 137.311 87.9555 137.205C88.1615 137.099 88.3941 137.056 88.6244 137.081C88.7828 137.1 88.9357 137.151 89.0742 137.23C89.2127 137.309 89.334 137.415 89.4309 137.542C89.5279 137.669 89.5985 137.814 89.6387 137.968C89.6788 138.122 89.6877 138.283 89.6648 138.441Z" fill="#263238"/>
<path d="M90.5351 137.319C90.3651 137.462 89.5831 136.639 88.3251 136.401C87.0671 136.163 86.0539 136.714 85.9451 136.53C85.8363 136.347 86.0743 136.177 86.5231 135.925C87.1159 135.614 87.7952 135.509 88.4543 135.626C89.1167 135.738 89.7236 136.066 90.1815 136.558C90.5283 136.945 90.6167 137.258 90.5351 137.319Z" fill="#263238"/>
<path d="M77.0372 137.231C77.0323 137.394 76.9938 137.554 76.9241 137.701C76.8543 137.849 76.7549 137.98 76.632 138.087C76.5091 138.194 76.3654 138.275 76.2099 138.324C76.0544 138.373 75.8905 138.389 75.7284 138.372C75.5663 138.354 75.4096 138.303 75.268 138.223C75.1264 138.142 75.0031 138.033 74.9057 137.902C74.8083 137.771 74.739 137.622 74.7021 137.463C74.6652 137.304 74.6615 137.139 74.6912 136.979C74.6962 136.816 74.7347 136.656 74.8044 136.509C74.8742 136.361 74.9736 136.23 75.0965 136.123C75.2194 136.016 75.3631 135.935 75.5186 135.886C75.6741 135.837 75.838 135.821 76.0001 135.838C76.1622 135.856 76.3189 135.907 76.4605 135.987C76.6021 136.068 76.7254 136.177 76.8228 136.308C76.9202 136.439 76.9895 136.588 77.0264 136.747C77.0633 136.906 77.067 137.071 77.0372 137.231Z" fill="#263238"/>
<path d="M77.6628 136.17C77.4996 136.313 76.7108 135.456 75.4596 135.252C74.2084 135.048 73.1884 135.565 73.0728 135.374C73.0184 135.293 73.2088 135.021 73.6576 134.776C74.2502 134.464 74.9297 134.359 75.5888 134.477C76.2515 134.588 76.8588 134.916 77.316 135.408C77.656 135.789 77.7444 136.109 77.6628 136.17Z" fill="#263238"/>
<path d="M79.2881 145.894C79.9875 145.851 80.6896 145.901 81.3757 146.044C81.7021 146.091 82.0149 146.105 82.1237 145.887C82.2204 145.543 82.2204 145.178 82.1237 144.833C82.0217 143.936 81.9197 142.997 81.8109 142.011C81.4097 137.999 81.2057 134.742 81.3553 134.722C81.5049 134.701 81.9537 137.938 82.3617 141.95C82.4501 142.936 82.5385 143.874 82.6201 144.772C82.7181 145.23 82.6632 145.708 82.4637 146.132C82.3926 146.236 82.2986 146.322 82.1889 146.383C82.0792 146.444 81.9568 146.479 81.8313 146.486C81.6458 146.489 81.4607 146.468 81.2805 146.424C80.5953 146.339 79.9249 146.161 79.2881 145.894Z" fill="#263238"/>
<path d="M77.7852 162.037C73.4367 161.368 69.3772 159.447 66.1028 156.509C66.1028 156.509 68.3876 163.934 77.6152 164.546L77.7852 162.037Z" fill="#EB996E"/>
<path d="M78.0571 149.6C78.0301 149.194 77.9038 148.8 77.6892 148.454C77.4746 148.108 77.1783 147.819 76.8263 147.614C76.583 147.469 76.3112 147.379 76.0296 147.348C75.748 147.318 75.4631 147.348 75.1943 147.438C74.929 147.536 74.6993 147.712 74.5345 147.942C74.3697 148.172 74.2775 148.447 74.2695 148.73C74.3088 149.043 74.4383 149.339 74.6423 149.58C74.8463 149.822 75.1161 149.999 75.4187 150.09C76.0342 150.259 76.6784 150.296 77.3091 150.198C77.485 150.193 77.6582 150.154 77.8191 150.083C77.8977 150.044 77.9637 149.984 78.0094 149.909C78.0552 149.835 78.0788 149.749 78.0775 149.661" fill="#EB996E"/>
<path d="M75.3098 146.2C75.2214 146.2 75.0174 146.513 74.9834 147.132C74.959 147.953 75.2327 148.755 75.7539 149.39C76.2752 150.025 77.0088 150.45 77.819 150.586C78.4378 150.674 78.805 150.538 78.7982 150.443C78.7982 150.232 77.343 150.158 76.3298 148.92C75.3166 147.682 75.5138 146.234 75.3098 146.2Z" fill="#263238"/>
<path d="M59.8401 135.177C59.6973 135.075 54.4817 132.824 52.9925 138.965C51.5033 145.105 58.6297 144.48 58.6841 144.303C58.7385 144.126 59.8401 135.177 59.8401 135.177Z" fill="#FFBE9D"/>
<path d="M57.2219 141.726C57.2219 141.726 57.0927 141.773 56.8751 141.814C56.5792 141.865 56.2749 141.807 56.0183 141.651C55.3791 141.263 55.0459 140.114 55.2839 138.999C55.3916 138.464 55.6247 137.963 55.9639 137.537C56.0775 137.354 56.2329 137.201 56.4173 137.089C56.6018 136.978 56.8099 136.913 57.0247 136.898C57.16 136.891 57.2934 136.93 57.4034 137.009C57.5133 137.089 57.5932 137.202 57.6299 137.333C57.6775 137.523 57.6299 137.639 57.6299 137.659C57.6299 137.68 57.7931 137.584 57.8067 137.319C57.8032 137.159 57.743 137.004 57.6367 136.884C57.4838 136.715 57.2723 136.61 57.0451 136.592C56.7697 136.58 56.4957 136.636 56.2468 136.755C55.998 136.873 55.7818 137.051 55.6171 137.272C55.2134 137.737 54.9328 138.295 54.8011 138.897C54.5427 140.148 54.9371 141.447 55.8279 141.902C55.9952 141.987 56.1783 142.036 56.3655 142.047C56.5528 142.057 56.7401 142.029 56.9159 141.964C57.1743 141.868 57.2423 141.739 57.2219 141.726Z" fill="#EB996E"/>
<path d="M91.3715 117.565C92.4526 118.347 93.2646 119.446 93.6957 120.708C94.1268 121.971 94.1558 123.337 93.7787 124.617C92.8539 127.554 90.1135 130.737 82.4975 130.635L84.2315 128.71C82.5179 130.018 80.5153 130.894 78.3923 131.266C76.2693 131.637 74.088 131.493 72.0323 130.846L74.1675 126.711C74.1675 126.711 64.5387 136.918 59.1599 137.36L59.8399 126.48C61.1387 116.212 65.5383 113.132 72.1955 112.581C74.6681 112.356 77.1578 112.399 79.6211 112.71C83.8852 113.31 87.9278 114.98 91.3715 117.565Z" fill="#263238"/>
<path d="M53.7201 108.671C54.227 108.794 54.7081 109.006 55.1413 109.296C57.3282 110.574 59.0649 112.498 60.1121 114.804C60.3555 115.265 60.5166 115.764 60.5881 116.28C60.4725 116.334 59.7109 114.056 57.7593 111.928C55.8077 109.8 53.6521 108.8 53.7201 108.671Z" fill="#263238"/>
<path d="M34.3331 143.48C34.3331 143.48 34.2039 143.344 33.9115 143.16C33.4777 142.899 32.9761 142.771 32.4699 142.793C32.0779 142.803 31.6927 142.897 31.3406 143.07C30.9885 143.242 30.6778 143.489 30.4299 143.793C30.1301 144.218 29.9425 144.712 29.8842 145.229C29.826 145.746 29.8991 146.269 30.0967 146.751C30.338 147.329 30.7269 147.834 31.2245 148.214C31.7222 148.595 32.3111 148.838 32.9323 148.92C33.6516 149.029 34.3862 148.979 35.0841 148.774C35.7821 148.568 36.4264 148.212 36.9715 147.73C38.2222 146.682 39.0863 145.246 39.4263 143.65C39.6066 142.816 39.6066 141.954 39.4263 141.12C39.221 140.256 38.9152 139.418 38.5151 138.625C38.1343 137.802 37.7263 136.993 37.4067 136.143C37.0939 135.307 36.8905 134.434 36.8015 133.545C36.6567 131.864 36.8534 130.171 37.3795 128.568C38.291 125.87 39.8755 123.45 41.9831 121.536C43.3686 120.24 44.871 119.075 46.4711 118.055C47.0355 117.694 47.4843 117.422 47.7903 117.246C47.9418 117.149 48.101 117.065 48.2663 116.994C48.1329 117.116 47.9871 117.223 47.8311 117.314L46.5595 118.184C44.997 119.238 43.5253 120.421 42.1599 121.72C40.1247 123.631 38.5945 126.016 37.7059 128.663C37.2088 130.221 37.0262 131.862 37.1687 133.491C37.2641 134.345 37.4604 135.185 37.7535 135.993C38.0663 136.816 38.4743 137.612 38.8619 138.448C39.2725 139.268 39.5852 140.133 39.7935 141.025C39.984 141.91 39.984 142.826 39.7935 143.711C39.4261 145.387 38.5066 146.891 37.1823 147.982C36.5971 148.491 35.9069 148.866 35.1606 149.078C34.4143 149.291 33.6303 149.337 32.8643 149.212C32.188 149.117 31.5494 148.842 31.014 148.418C30.4786 147.994 30.0658 147.435 29.8179 146.798C29.613 146.275 29.5435 145.708 29.616 145.151C29.6885 144.593 29.9007 144.063 30.2327 143.609C30.5047 143.286 30.8454 143.027 31.2301 142.851C31.6147 142.676 32.0337 142.589 32.4563 142.596C32.9853 142.586 33.5041 142.743 33.9387 143.045C34.098 143.162 34.2321 143.31 34.3331 143.48Z" fill="#263238"/>
<path d="M58.9697 122.958C58.7552 122.59 58.6251 122.178 58.5889 121.754C58.429 120.743 58.4682 119.71 58.7045 118.714C58.9344 117.716 59.3597 116.773 59.9557 115.94C60.4181 115.308 60.7989 115.002 60.8261 115.036C60.8533 115.07 59.5953 116.538 59.0853 118.803C58.5753 121.067 59.0921 122.937 58.9697 122.958Z" fill="#263238"/>
<path d="M53.3527 142.8C52.9918 143.114 52.7119 143.511 52.5367 143.956C52.4622 144.19 52.4346 144.437 52.4556 144.682C52.4766 144.927 52.5458 145.166 52.6591 145.384C52.8182 145.639 53.0341 145.854 53.2901 146.013C53.5461 146.171 53.8351 146.267 54.1347 146.295C54.4324 146.342 54.7368 146.323 55.026 146.238C55.3152 146.153 55.5821 146.006 55.8075 145.806C56.1596 145.454 56.3577 144.977 56.3583 144.48C56.3369 143.996 56.1867 143.526 55.9231 143.12C55.9231 143.12 56.0727 143.174 56.2427 143.385C56.4798 143.69 56.6175 144.06 56.6371 144.446C56.6566 144.737 56.6159 145.029 56.5176 145.304C56.4194 145.579 56.2656 145.831 56.0659 146.044C55.8039 146.291 55.4888 146.476 55.1447 146.583C54.8006 146.69 54.4365 146.717 54.0803 146.662C53.729 146.629 53.3903 146.514 53.0916 146.326C52.7928 146.139 52.5422 145.883 52.3599 145.581C52.2317 145.318 52.1601 145.03 52.1496 144.738C52.139 144.445 52.1898 144.153 52.2987 143.881C52.4326 143.522 52.669 143.21 52.9787 142.984C53.1963 142.834 53.3459 142.8 53.3527 142.8Z" fill="#455A64"/>
<path d="M95.4516 127.038C95.3768 127.038 95.676 125.99 95.6828 124.318C95.7049 122.099 95.119 119.916 93.9886 118.006C92.8582 116.097 91.2265 114.533 89.2704 113.485C87.7812 112.676 86.7272 112.445 86.7476 112.37C87.0005 112.374 87.2509 112.42 87.4888 112.506C88.1482 112.688 88.7882 112.934 89.3996 113.24C91.4483 114.255 93.1586 115.843 94.3233 117.81C95.488 119.777 96.0571 122.04 95.9616 124.324C95.9356 125.011 95.8445 125.695 95.6896 126.364C95.6418 126.599 95.5617 126.825 95.4516 127.038Z" fill="#263238"/>
<path d="M78.268 133.776C78.2272 133.824 77.9688 133.579 77.4996 133.294C76.8966 132.922 76.2182 132.69 75.514 132.614C74.807 132.543 74.0932 132.633 73.4264 132.879C72.9028 133.062 72.6036 133.246 72.5696 133.192C72.5356 133.137 72.794 132.886 73.3176 132.62C74.0103 132.277 74.7861 132.138 75.5548 132.219C76.3223 132.303 77.0517 132.597 77.6628 133.069C78.1184 133.436 78.3088 133.749 78.268 133.776Z" fill="#FF725E"/>
<path d="M90.2633 134.926C89.4571 135.056 88.6351 135.056 87.8289 134.926C87.014 134.929 86.2038 134.803 85.4285 134.552C86.2325 134.423 87.052 134.423 87.8561 134.552C88.6733 134.547 89.486 134.673 90.2633 134.926Z" fill="#FF725E"/>
<path d="M134.13 194.031C134.13 194.031 137.986 184.872 132.77 185.871C124.78 187.394 125.97 195.167 125.97 195.167L134.13 194.031Z" fill="#EB996E"/>
<path d="M141.556 152.946C140.884 152.707 140.18 152.572 139.468 152.544C143.806 155.768 144.983 164.064 141.943 172.441C138.978 180.601 132.981 186.17 127.663 186.13L127.242 186.021C123.019 182.723 121.904 174.529 124.902 166.246C127.901 157.964 134.082 152.306 139.461 152.544C138.915 152.134 138.313 151.804 137.673 151.565C131.92 149.471 124.44 155.428 121.04 164.866C117.715 174.032 119.442 183.09 124.841 185.518H124.732L114.097 212.718C113.87 213.296 113.882 213.94 114.13 214.51C114.378 215.079 114.842 215.527 115.42 215.754C115.998 215.981 116.642 215.969 117.212 215.721C117.781 215.473 118.229 215.009 118.456 214.431L129.2 187.122C134.973 189.21 142.426 183.26 145.846 173.822C149.267 164.383 147.329 155.04 141.556 152.946Z" fill="#263238"/>
<path d="M136.755 177.548C136.831 177.26 136.94 176.981 137.081 176.718L138.074 174.522C139.203 172.125 140.082 169.619 140.699 167.042C141.29 164.473 141.29 161.804 140.699 159.236C140.4 158.184 140.023 157.157 139.57 156.162C139.769 156.386 139.934 156.638 140.06 156.91C140.444 157.624 140.747 158.379 140.964 159.161C141.649 161.766 141.689 164.499 141.08 167.124C140.46 169.717 139.536 172.228 138.326 174.604C137.87 175.515 137.489 176.249 137.217 176.746C137.1 177.033 136.944 177.302 136.755 177.548Z" fill="#263238"/>
<path d="M135.64 179.724C135.714 179.806 135.388 180.261 134.898 180.744C134.409 181.227 133.96 181.553 133.885 181.478C133.81 181.404 134.137 180.948 134.626 180.465C135.116 179.982 135.565 179.649 135.64 179.724Z" fill="#263238"/>
<path d="M124.039 189.938C123.216 188.38 122.257 186.232 120.809 185.225C119.36 184.219 117.347 183.056 115.647 184.545C117.786 187.598 119.767 190.757 121.584 194.011L124.039 189.938Z" fill="#EB996E"/>
<path d="M135.368 187.184C135.368 187.184 135.048 185.375 132.396 186.17C129.744 186.966 121.434 188.7 123.039 190.468C124.644 192.236 127.48 191.44 127.48 191.44C127.48 191.44 122.862 192.44 123.304 193.406C123.746 194.371 124.515 196.044 126.48 194.997C128.445 193.95 133.899 192.175 133.899 192.175L135.368 187.184Z" fill="#EB996E"/>
<path d="M135.068 191.223C135.068 191.223 135.068 191.046 135.068 190.767C135.062 190.58 134.999 190.399 134.887 190.248C134.775 190.098 134.62 189.985 134.443 189.924C133.852 189.857 133.254 189.946 132.709 190.182L130.499 190.774C128.928 191.189 127.5 191.536 126.46 191.767C125.906 191.931 125.336 192.034 124.76 192.073C125.28 191.821 125.828 191.629 126.392 191.502C127.412 191.196 128.826 190.822 130.397 190.4L132.614 189.836C133.224 189.592 133.893 189.53 134.538 189.659C134.755 189.749 134.937 189.905 135.06 190.106C135.182 190.306 135.237 190.54 135.218 190.774C135.198 191.08 135.082 191.23 135.068 191.223Z" fill="#263238"/>
<path d="M64.158 210.474L72.182 225.352L112.016 205.292C112.016 205.292 117.878 194.031 118.85 194.174C119.823 194.317 124.134 196.173 124.134 196.173C124.134 196.173 130.254 192.868 131.573 193.766C132.892 194.664 134.674 205.544 133.518 208.91C132.362 212.276 120.265 219.055 120.265 219.055C120.265 219.055 87.6248 240.489 73.4332 248.016C64.09 252.98 55.8484 247.058 50.3132 237.674L40.8748 217.702" fill="#FFBE9D"/>
</svg>